<svg width="444" height="263" viewBox="0 0 444 263" fill="none" xmlns="http://www.w3.org/2000/svg">
<g clip-path="url(#clip0_2242_2760)">
<path d="M109.506 98.7745C122.438 94.7571 124.747 78.959 125.109 61.998C116.04 39.9925 103.818 18.0474 125.019 11.9457C130.934 11.4473 136.472 11.991 141.648 13.3805C142.432 13.5316 143.247 13.7128 144.107 13.9545C145.752 14.4227 147.321 15.1023 148.845 15.9632C201.358 39.6754 210.019 156.333 178.572 157.889C166.606 153.282 145.345 147.135 132.398 136.729C131.281 137.922 130.149 139.1 128.972 140.278C102.61 148.464 88.2752 111.975 109.491 98.7745H109.506Z" fill="#AE7E4A"/>
<g style="mix-blend-mode:multiply">
<path d="M144.123 13.9696C107.017 3.23115 142.206 88.6251 109.507 98.7897C88.2908 111.99 102.626 148.495 128.988 140.294C184.171 84.955 132.187 93.3827 144.123 13.9696Z" fill="#AE7E4A"/>
</g>
<path d="M150.52 39.3127C150.414 39.2825 150.384 39.4487 150.49 39.4789C150.595 39.494 150.625 39.3429 150.52 39.3127Z" fill="#2B5877"/>
<path d="M152.375 43.0884C152.541 41.865 152.134 40.6567 151.5 39.6297C150.867 38.6027 149.976 37.7267 149.041 36.9715C148.95 36.9111 148.844 37.032 148.92 37.0924C151.078 38.8292 153.251 41.6989 151.727 44.5383C150.746 46.3658 148.407 47.4683 146.4 46.834C143.88 46.0486 143.08 42.4691 144.152 40.3094C145.404 37.7871 149.01 38.0439 150.927 39.5542C151.017 39.6146 151.123 39.4938 151.032 39.4334C149.131 37.9382 145.827 37.621 144.257 39.7808C142.794 41.8046 143.473 45.3841 145.63 46.6679C147.351 47.6949 149.599 47.0454 150.972 45.7466C151.727 45.0367 152.209 44.1003 152.345 43.0733L152.375 43.0884Z" fill="#2B5877"/>
<path d="M149.977 39.811C150.188 35.6727 150.233 31.4136 149.313 27.3508C148.951 25.7952 148.483 24.2849 147.517 23.0011C146.687 21.8985 145.661 20.9168 144.59 20.0559C141.813 17.8207 130.209 18.8326 124.249 24.0281C122.544 25.5233 120.884 27.079 119.39 28.8007C117.972 30.4168 116.719 32.1537 115.542 33.9359C113.037 37.6966 106.518 56.9684 106.775 57.0892C109.793 58.4485 111.302 57.9803 113.822 55.6242C119.948 78.6114 133.393 66.861 134.857 64.1273C135.717 68.3563 135.943 104.076 136.547 105.057C137.166 106.039 158.985 101.463 158.171 99.3784C153.387 87.175 149.766 44.0853 149.977 39.8261V39.811Z" fill="#FFA99A"/>
<path d="M153.568 45.4747C153.04 47.9365 150.625 49.5072 148.166 48.9786C145.706 48.45 144.137 46.0184 144.665 43.5565C145.193 41.0947 147.607 39.524 150.067 40.0526C152.527 40.5812 154.096 42.9977 153.568 45.4596V45.4747Z" fill="#FFA99A"/>
<path d="M121.971 46.4715C121.82 47.1813 121.126 47.6193 120.432 47.4683C119.723 47.3172 119.285 46.6225 119.436 45.9277C119.587 45.233 120.281 44.7799 120.975 44.9309C121.684 45.082 122.122 45.7767 121.971 46.4715Z" fill="#252525"/>
<path d="M133.755 29.2086C133.967 28.7253 134.676 28.7857 134.766 29.3144C135.4 32.4558 137.95 37.8477 147.336 43.1641C161.822 51.3501 159.815 32.2746 150.882 16.9448C104.783 -5.22686 104.783 41.7595 104.783 41.7595C104.783 41.7595 128.293 41.3064 133.74 29.2086H133.755Z" fill="#AE7E4A"/>
<path d="M148.166 49.3109C148.166 47.4532 149.675 45.9429 151.531 45.9429C153.387 45.9429 154.896 47.4532 154.896 49.3109C154.896 51.1686 153.387 52.6789 151.531 52.6789C149.675 52.6789 148.166 51.1686 148.166 49.3109Z" fill="#FAFAFA"/>
<path d="M133.771 28.4536C125.095 32.3805 115.241 33.6491 105.795 32.8336C115.075 31.7914 124.687 30.5832 133.771 28.4536Z" fill="#AE7E4A"/>
<path d="M133.771 28.4536C126.03 35.4011 114.788 39.1618 104.467 36.9417C114.879 37.2135 124.928 33.8153 133.771 28.4536Z" fill="#AE7E4A"/>
<path d="M134.48 28.0605C144.455 39.1313 159.56 44.0398 174.121 44.4929C176.234 44.5684 178.346 44.4778 180.474 44.5382C178.376 44.7799 176.249 45.0215 174.121 45.1575C159.379 45.7767 143.263 40.4906 134.48 28.0757V28.0605Z" fill="#AE7E4A"/>
<path d="M134.48 28.0605C136.955 36.8356 145.707 42.016 153.976 44.4627C162.532 47.1964 171.571 47.6042 180.474 48.0422C169.292 48.8427 157.432 48.2687 147.231 43.194C141.271 40.2036 135.461 34.9627 134.48 28.0605Z" fill="#AE7E4A"/>
<g style="mix-blend-mode:multiply" opacity="0.25">
<path d="M202.227 246.432C202.227 248.773 162.843 250.676 114.254 250.676C65.6654 250.676 26.2812 248.773 26.2812 246.432C26.2812 244.091 65.6654 242.188 114.254 242.188C162.843 242.188 202.227 244.091 202.227 246.432Z" fill="#F79C92"/>
</g>
<path d="M147.517 115.449C138.041 137.424 115.617 152.814 91.9266 154.853C69.2165 156.967 47.427 145.096 31.7035 129.661C27.3878 125.417 23.4343 121.007 19.9184 115.992C19.0734 114.784 19.3601 113.123 20.5673 112.277C21.533 111.597 22.8006 111.642 23.7059 112.322C40.8177 124.843 60.6758 136.216 82.1786 135.46C94.0542 134.554 105.764 130.28 114.999 122.683C120.416 118.379 125.26 112.715 128.881 107.066C134.842 94.9383 152.602 102.852 147.517 115.433V115.449Z" fill="#F79C92"/>
<path d="M28.8815 237.166C29.1833 231.668 29.0626 226.156 28.9267 220.643C28.806 215.024 28.4439 198.773 29.7567 181.767C28.8211 154.581 32.8803 83.4446 65.8362 119.149C69.9406 123.604 41.1645 243.675 40.7571 248.901C40.7571 248.962 40.7118 248.992 40.6666 248.992C29.5756 249.52 -4.52717 252.994 7.5597 246.5C10.3966 245.307 26.3011 241.757 27.0104 241.652C27.3272 241.606 27.6441 241.546 27.961 241.5C28.1119 241.47 28.2779 241.455 28.4288 241.425C28.5797 241.395 28.5495 241.138 28.5646 241.047C28.7004 239.749 28.7909 238.465 28.8664 237.166H28.8815Z" fill="#F78E81"/>
<path d="M136.985 95.5122C136.864 95.5122 136.849 95.7086 136.985 95.7086C137.106 95.7086 137.121 95.5122 136.985 95.5122Z" fill="#C38F2C"/>
<path d="M181.665 162.571C173.456 128.664 183.898 90.694 139.64 100.3C126.617 103.033 124.957 111.053 123.313 127.199C121.849 141.517 163.421 163.598 128.081 199.997C99.4256 229.508 192.59 207.654 181.665 162.571C183.023 168.144 180.261 156.786 181.665 162.571Z" fill="#FFA99A"/>
<path d="M190.462 183.066C189.753 180.136 181.303 161.106 181.665 162.54C174.889 134.554 180.79 103.849 158.17 99.3633C149.252 106.22 143.035 119.496 132.155 120.221C128.504 121.339 127.87 113.183 129.303 105.827C123.132 111.808 112.373 131.035 121.079 137.967C145.796 157.632 112.795 193.155 134.69 192.143C136.335 202.64 192.273 190.497 190.462 183.066Z" fill="#FF7373"/>
<g style="mix-blend-mode:multiply" opacity="0.45">
<path d="M138.448 162.148C153.205 148.374 164.115 132.425 169.397 114.225C172.339 122.774 170.83 135.475 169.366 145.202C162.485 164.972 152.647 180.091 126.783 186.766C126.783 163.205 141.284 167.796 138.432 162.133L138.448 162.148Z" fill="#FAFAFA"/>
</g>
<path d="M132.156 120.221C143.035 119.496 149.267 106.236 158.17 99.3635C153.387 98.412 147.366 98.6235 139.64 100.3C135.551 101.161 132.126 103.094 129.304 105.843C127.87 113.198 128.504 121.354 132.156 120.236V120.221Z" fill="#FFA99A"/>
<path d="M166.258 100.949C166.138 100.949 166.123 101.146 166.258 101.146C166.379 101.146 166.394 100.949 166.258 100.949Z" fill="#A01A35"/>
<path d="M85.3929 234.115C83.0993 229.101 67.1192 200.359 60.3741 184.682C46.8839 161.061 17.3533 96.2372 63.1355 112.458C68.8395 114.482 73.0797 119.33 76.837 124.027C82.5409 131.141 86.7811 139.282 90.5385 147.619C92.2587 151.44 93.8884 155.291 95.503 159.112C96.7102 161.967 97.9023 164.821 99.1547 167.661C100.332 170.334 101.494 173.037 102.927 175.575C106.564 182.054 111.875 187.446 118.077 191.509C123.796 195.239 156.571 197.037 158.306 196.327C166.093 193.14 183.159 239.129 154.187 243.902C146.929 245.11 139.58 245.82 132.458 243.947C124.883 241.954 117.911 238.027 111.921 233.013C108.676 230.294 105.538 227.288 102.882 223.996C100.784 221.398 99.034 218.513 97.359 215.629C95.5483 212.502 93.813 209.331 91.8815 206.28C90.1009 203.471 87.264 196.372 85.3778 190.24C85.3024 190.24 85.2118 190.21 85.1364 190.21C89.1804 203.199 95.3823 240.851 98.9284 249.083C98.9435 249.128 72.3403 255.501 64.1164 251.892C60.2081 245.125 86.3586 238.586 86.6152 238.389C86.7359 238.299 86.8717 238.193 86.9924 238.102C87.1131 238.012 86.9773 237.8 86.932 237.695C86.4492 236.486 85.9361 235.293 85.3929 234.115Z" fill="#FFA99A"/>
<path d="M181.529 189.379C166.183 192.702 150.731 194.484 134.691 192.143C134.057 193.034 133.393 193.925 132.654 194.846C126.059 194.031 120.205 192.913 118.092 191.524C116.176 190.27 114.365 188.88 112.645 187.385C107.031 195.768 102.67 205.555 96.5137 214.163C96.8004 214.662 97.072 215.145 97.3587 215.644C99.0337 218.528 100.784 221.413 102.882 224.011C105.552 227.318 108.676 230.324 111.92 233.027C117.926 238.042 124.882 241.969 132.457 243.962C139.58 245.835 146.928 245.11 154.187 243.917C177.696 240.035 182.948 204.694 181.514 189.379H181.529Z" fill="#252525"/>
<g style="mix-blend-mode:multiply" opacity="0.35">
<path d="M85.3773 190.24C87.2484 196.372 90.1004 203.47 91.881 206.28C93.8125 209.33 95.5327 212.502 97.3585 215.628C99.0335 218.513 100.784 221.398 102.881 223.996C105.552 227.303 108.676 230.294 111.92 233.012C117.926 238.027 124.882 241.953 132.457 243.947C139.58 245.82 146.928 245.095 154.186 243.902C163.557 242.361 170.031 235.806 174.331 227.53C142.809 252.148 96.7851 241.531 75.2672 144.718C64.7497 132.137 85.3773 190.225 85.3773 190.225V190.24Z" fill="#FFA99A"/>
</g>
<path d="M170.635 113.953C173.004 137.771 160.872 162.117 141.15 175.408C122.318 188.291 97.5104 188.503 76.2943 182.643C70.4545 181.027 64.8713 179.094 59.3636 176.42C58.0357 175.786 57.4774 174.185 58.1262 172.856C58.6393 171.784 59.771 171.225 60.8876 171.376C81.9227 174.004 104.799 174.306 123.238 163.19C133.183 156.62 141.346 147.195 145.737 136.079C148.378 129.676 149.872 122.381 150.309 115.675C149.645 102.173 169.006 100.466 170.65 113.938L170.635 113.953Z" fill="#FFBFB6"/>
<path d="M71.1029 174.231C71.1029 174.231 68.8697 164.323 63.4374 162.813C58.0051 161.302 63.3015 168.431 63.3015 168.431L48.1816 164.383C48.1816 164.383 48.4533 174.714 51.9843 177.176C55.5152 179.638 80.021 179.305 80.021 179.305L71.0878 174.231H71.1029Z" fill="#FFBFB6"/>
<path d="M104.164 204.663C104.164 204.663 134.162 229.584 145.782 219.978C157.401 210.372 161.912 194.665 161.912 194.665" stroke="#F7EBEB" stroke-width="0.83" stroke-linecap="round" stroke-linejoin="round"/>
<path d="M13.4299 49.3867C12.5848 49.8096 0 74.141 0 74.141L21.3218 117.457L41.1497 103.154L14.3654 51.2142L13.4148 49.3867H13.4299Z" fill="#252525"/>
<path d="M4.9043 70.9995L15.9802 49.3867L33.0466 83.4295L25.8036 90.1505L4.9043 70.9995Z" fill="#918F8F"/>
<path d="M24.0833 113.198L56.0735 103.17L32.3978 59.8535L22.7102 62.844L21.4275 61.1675L4.9043 70.9997L24.0833 113.198Z" fill="#F1F1F1"/>
<path d="M0 74.141L28.5648 62.8438L54.7908 107.217L21.3218 117.472L0 74.141Z" fill="#252525"/>
<path d="M21.7589 118.514C21.7589 118.514 11.4979 104.906 12.539 99.6352C13.5802 94.3642 17.0961 87.5979 17.1716 93.0804C17.2219 96.7354 17.2219 99.2929 17.1716 100.753C25.2748 105.873 22.5586 117.049 21.7589 118.514Z" fill="#F79C92"/>
<g style="mix-blend-mode:multiply" opacity="0.25">
<path d="M425.229 246.431C425.229 248.772 385.845 250.675 337.256 250.675C288.667 250.675 249.283 248.772 249.283 246.431C249.283 244.09 288.667 242.187 337.256 242.187C385.845 242.187 425.229 244.09 425.229 246.431Z" fill="#F79C92"/>
</g>
<path d="M277.636 99.6877C277.636 99.6877 246.34 91.2148 230.994 116.634C222.543 130.634 205.613 211.014 275.976 239.333C347.577 268.135 372.233 218.173 383.355 205.411C394.476 192.664 277.636 99.6726 277.636 99.6726V99.6877Z" fill="#EC6B53"/>
<g style="mix-blend-mode:multiply" opacity="0.25">
<path d="M277.636 99.6878C277.636 99.6878 266.047 96.5464 253.523 99.8238C249.961 119.398 244.906 158.953 256.224 184.01C270.936 216.587 301.342 258.303 360.147 232.219C371.796 222.402 378.737 210.712 383.339 205.426C394.461 192.679 277.621 99.6878 277.621 99.6878H277.636Z" fill="#EC6B53"/>
</g>
<path d="M386.01 102.376C382.826 102.376 374.904 113.432 374.904 113.432C374.904 113.432 369.985 101.017 368.928 103.388C367.872 105.774 365.413 124.578 365.413 124.578C365.413 124.578 353.763 139.379 328.367 139.908C302.971 140.436 290.537 114.051 290.537 114.051C289.858 115.123 289.511 154.618 286.523 159.542C295.26 164.662 306.125 167.078 319.449 164.299C366.288 154.497 389.179 102.376 385.995 102.376H386.01Z" fill="#F79C92"/>
<path d="M397.751 200.91L376.852 245.933H412.569L390.885 237.46L410.728 200.91H397.751Z" fill="#512F2C"/>
<path d="M433.83 120.938C394.25 114.927 376.565 171.021 342.296 173.316C342.93 177.772 295.292 218.566 294.945 218.581C294.809 218.732 294.673 218.883 294.537 219.019C308.088 230.92 325.818 238.668 347.819 240.194C370.091 238.004 387.535 213.114 398.686 191.32L412.569 158.153C412.569 158.153 407.68 173.724 398.686 191.32L394.461 201.424L427.613 204.006C427.613 204.006 459.936 124.895 433.845 120.938H433.83Z" fill="#587AA0"/>
<path d="M280.277 99.7177C282.57 99.7177 290.326 100.775 290.326 100.775C290.673 100.956 291.202 100.594 291.383 100.775C291.564 100.956 291.76 101.107 291.956 101.228C290.372 92.8759 289.587 83.4213 290.055 72.6828C304.224 76.2321 311.814 59.5128 311.814 59.5128C311.814 59.5128 316.085 62.0652 319.404 60.5247C315.858 55.012 312.916 22.6456 300.12 29.2458C298.565 30.0462 290.432 29.2458 288.576 31.3149C286.056 34.1241 289.662 40.3618 286.479 46.0104C285.799 40.981 278.149 40.241 275.222 44.5454C271.359 50.2242 274.814 56.4015 279.869 55.9031C271.751 68.7409 265.685 82.7114 261.701 97.0444C265.459 97.709 277.802 99.5214 280.277 99.7026V99.7177Z" fill="#FFA99A"/>
<path d="M391.322 192.422C400.98 175.189 406.442 159.814 406.442 159.814L391.322 192.422Z" stroke="#FFA99A" stroke-width="0.12" stroke-miterlimit="10"/>
<path d="M287.973 47.5663C288.939 45.7086 277.124 39.6219 277.652 35.9065C278.18 32.2062 283.477 19.4893 295.639 25.3191C313.777 34.0035 318.123 16.0457 327.659 22.4948C333.031 26.1347 338.916 42.9145 325.547 45.1799C311.528 47.5663 314.682 36.8882 309.144 34.3207C299.804 29.9709 291.519 31.1188 290.358 31.9495C296.439 40.6943 287.973 47.5814 287.973 47.5814V47.5663Z" fill="#252525"/>
<path d="M273.155 112.45C273.155 112.45 256.345 121.195 256.239 130.982C256.118 140.769 272.626 195.337 319.465 185.535C366.303 175.733 396.724 116.951 393.555 116.951C390.387 116.951 376.896 128.067 376.896 128.067C376.896 128.067 371.072 119.851 370.015 122.237C368.959 124.623 373.984 132.824 373.984 132.824L316.824 150.722L273.17 112.435L273.155 112.45Z" fill="#FFA99A" stroke="#FFA99A" stroke-width="0.12" stroke-miterlimit="10"/>
<path d="M392.364 83.1494C393.118 83.527 404.315 105.17 404.315 105.17L385.347 143.714L367.707 130.997L391.534 84.7806L392.379 83.1494H392.364Z" fill="#252525"/>
<path d="M399.953 102.376L390.085 83.1494L374.904 113.432L381.363 119.412L399.953 102.376Z" fill="#918F8F"/>
<path d="M310.259 49.318C310.259 49.892 309.791 50.3451 309.233 50.3451C308.675 50.3451 308.207 49.8769 308.207 49.318C308.207 48.7592 308.675 48.291 309.233 48.291C309.791 48.291 310.259 48.7592 310.259 49.318Z" fill="#252525"/>
<path d="M382.872 139.923L354.428 130.997L375.478 92.4531L384.109 95.1113L385.241 93.6161L399.953 102.376L382.872 139.923Z" fill="#F1F1F1"/>
<path d="M404.313 105.17L378.887 95.1113L355.559 134.606L385.346 143.714L404.313 105.17Z" fill="#252525"/>
<path d="M300.558 212.011C300.739 211.83 307.967 210.062 308.314 209.368C308.495 209.186 309.023 209.549 309.371 209.368C310.427 208.492 311.664 208.31 312.539 207.253C312.72 207.072 313.249 207.434 313.596 207.253C315.542 205.667 317.655 204.429 318.711 202.314C319.586 200.729 320.13 200.729 321.005 200.2C321.186 200.2 320.824 199.49 321.005 199.309C321.186 199.128 321.88 199.49 322.061 199.309C322.242 198.78 321.88 198.252 322.061 197.723H322.589V197.194C322.936 197.013 323.464 196.847 323.464 196.666C323.645 195.08 324.34 195.427 324.521 195.08C325.577 193.494 326.633 192.074 327.689 190.489C331.22 184.659 333.333 178.481 335.627 172.304C335.989 171.247 335.989 170.19 336.336 169.133C336.517 168.604 336.336 168.075 336.336 167.547C336.517 167.018 336.864 166.489 336.864 165.961C336.713 161.49 337.287 157.02 336.819 152.549C328.037 155.404 321.593 156.355 319.375 153.757C312.328 145.526 297.374 129.97 291.927 101.258C291.731 101.138 291.534 100.986 291.353 100.805C291.172 100.624 265.414 97.7544 261.672 97.0898C249.434 141.161 257.024 188.54 286.163 216.179C286.313 216.043 286.449 215.892 286.585 215.756C286.932 215.756 299.819 213.113 300.528 212.056L300.558 212.011Z" fill="#F1F1F1"/>
<g style="mix-blend-mode:multiply" opacity="0.35">
<path d="M336.365 169.117C336.531 168.619 336.395 168.136 336.365 167.637C328.398 167.501 320.46 166.837 313.097 163.424C308.449 161.279 304.133 158.198 300.24 154.905C296.422 151.673 292.876 148.139 288.938 145.028C288.817 144.937 288.712 144.847 288.591 144.756C288.546 144.726 288.5 144.68 288.41 144.62C288.168 144.439 287.927 144.257 287.67 144.076C287.172 143.714 286.674 143.366 286.161 143.019C285.331 142.46 284.547 141.811 283.732 141.207C281.906 139.847 280.035 138.533 278.134 137.295C276.112 135.996 274.029 134.773 271.856 133.7C271.253 133.398 270.649 133.111 270.03 132.839C269.97 132.809 269.608 132.658 269.517 132.628C269.336 132.552 269.155 132.477 268.989 132.417C267.948 132.024 266.877 131.646 265.79 131.359C265.172 131.193 264.553 131.042 263.934 130.921C263.678 130.876 263.406 130.816 263.135 130.77C263.044 130.755 262.697 130.71 262.606 130.695C261.746 130.604 260.886 130.574 260.026 130.604C259.588 130.619 259.136 130.649 258.698 130.695C258.653 130.695 258.593 130.695 258.517 130.71C258.457 130.71 258.396 130.725 258.336 130.74C257.672 130.861 257.008 130.997 256.359 131.193C256.314 131.208 256.269 131.223 256.208 131.238C255.635 144.182 256.797 156.899 259.739 168.815C261.46 170.628 263.391 172.183 265.383 173.739C265.549 173.875 265.715 173.996 265.881 174.132C265.609 173.92 265.624 173.935 265.941 174.177C266.183 174.358 266.424 174.555 266.665 174.736C267.148 175.098 267.646 175.461 268.129 175.823C269.095 176.518 270.061 177.213 271.026 177.877C272.988 179.206 274.965 180.475 277.017 181.653C278.949 182.756 280.925 183.798 282.947 184.734C283.43 184.946 283.898 185.172 284.381 185.369C284.502 185.429 284.698 185.489 284.743 185.52C284.984 185.61 285.211 185.716 285.452 185.807C286.388 186.169 287.338 186.516 288.289 186.834C290.236 187.483 292.212 188.027 294.219 188.45C295.245 188.661 296.287 188.857 297.328 189.009C297.343 189.009 297.358 189.009 297.373 189.009C297.615 189.039 297.856 189.069 298.097 189.099C298.58 189.144 299.063 189.19 299.546 189.235C301.568 189.386 303.59 189.431 305.627 189.341C306.699 189.295 307.77 189.22 308.826 189.099C309.068 189.069 309.324 189.039 309.581 189.009C309.641 189.009 309.822 188.978 309.943 188.963C310.35 188.903 310.758 188.842 311.18 188.767C315.601 188.012 319.917 186.743 324.082 185.097C324.429 184.961 324.791 184.81 325.153 184.659C325.214 184.644 325.606 184.462 325.681 184.432C326.134 184.236 326.587 184.04 327.039 183.828C328.141 183.33 329.243 182.801 330.314 182.272C330.948 181.955 331.566 181.638 332.185 181.306C333.407 178.33 334.494 175.31 335.61 172.274C335.973 171.217 335.973 170.16 336.32 169.102L336.365 169.117Z" fill="#F1F1F1"/>
</g>
<mask id="mask0_2242_2760" style="mask-type:luminance" maskUnits="userSpaceOnUse" x="256" y="97" width="82" height="120">
<path d="M300.558 212.011C300.739 211.83 307.967 210.062 308.314 209.368C308.495 209.186 309.023 209.549 309.371 209.368C310.427 208.492 311.664 208.31 312.539 207.253C312.72 207.072 313.249 207.434 313.596 207.253C315.542 205.667 317.655 204.429 318.711 202.314C319.586 200.729 320.13 200.729 321.005 200.2C321.186 200.2 320.824 199.49 321.005 199.309C321.186 199.128 321.88 199.49 322.061 199.309C322.242 198.78 321.88 198.252 322.061 197.723H322.589V197.194C322.936 197.013 323.464 196.847 323.464 196.666C323.645 195.08 324.34 195.427 324.521 195.08C325.577 193.494 326.633 192.074 327.689 190.489C331.22 184.659 333.333 178.481 335.627 172.304C335.989 171.247 335.989 170.19 336.336 169.133C336.517 168.604 336.336 168.075 336.336 167.547C336.517 167.018 336.864 166.489 336.864 165.961C336.713 161.49 337.287 157.02 336.819 152.549C328.037 155.404 321.593 156.355 319.375 153.757C312.328 145.526 297.374 129.97 291.927 101.258C291.731 101.138 291.534 100.986 291.353 100.805C291.172 100.624 265.414 97.7544 261.672 97.0898C249.434 141.161 257.024 188.54 286.163 216.179C286.313 216.043 286.449 215.892 286.585 215.756C286.932 215.756 299.819 213.113 300.528 212.056L300.558 212.011Z" fill="white"/>
</mask>
<g mask="url(#mask0_2242_2760)">
<path d="M247.396 102.376H308.193" stroke="#918F8F" stroke-width="0.94" stroke-miterlimit="10"/>
<path d="M247.473 110.32L308.118 106.363" stroke="#918F8F" stroke-width="0.94" stroke-miterlimit="10"/>
<path d="M247.818 121.18L307.77 111.181" stroke="#918F8F" stroke-width="0.94" stroke-miterlimit="10"/>
<path d="M247.818 129.411L307.77 119.413" stroke="#918F8F" stroke-width="0.94" stroke-miterlimit="10"/>
<path d="M247.818 137.642L307.77 127.644" stroke="#918F8F" stroke-width="0.94" stroke-miterlimit="10"/>
<path d="M248.693 149.634L306.894 132.099" stroke="#918F8F" stroke-width="0.94" stroke-miterlimit="10"/>
<path d="M248.693 160.599L314.62 137.642" stroke="#918F8F" stroke-width="0.94" stroke-miterlimit="10"/>
<path d="M251.062 171.308L316.99 148.335" stroke="#918F8F" stroke-width="0.94" stroke-miterlimit="10"/>
<path d="M252.27 185.806L315.767 156.793" stroke="#918F8F" stroke-width="0.94" stroke-miterlimit="10"/>
<path d="M262.969 198.176L323.931 164.133" stroke="#918F8F" stroke-width="0.94" stroke-miterlimit="10"/>
<path d="M273.336 210.47L333.106 174.389" stroke="#918F8F" stroke-width="0.94" stroke-miterlimit="10"/>
</g>
<path d="M390.899 200.91L370 245.933H405.717L384.018 237.46L403.861 200.91H390.899Z" fill="#FFA99A"/>
<path d="M429.605 119.095C390.281 111.589 370 171.292 335.671 172.289C336.139 176.76 286.992 215.726 286.63 215.726C286.494 215.877 286.343 216.013 286.207 216.149C299.29 228.549 316.718 236.977 338.644 239.333C360.977 237.989 379.371 213.778 391.322 192.422L406.442 159.814C406.442 159.814 400.964 175.189 391.322 192.422L386.72 202.36L419.751 206.196C419.751 206.196 455.529 124.034 429.605 119.095Z" fill="#7B95BB"/>
<path d="M393.54 116.951C390.371 116.951 376.881 128.067 376.881 128.067C376.881 128.067 371.057 119.851 370 122.237C368.944 124.623 373.969 132.824 373.969 132.824L316.809 150.722L303.108 138.699C302.429 139.772 289.527 175.854 286.539 180.777C295.276 185.897 306.141 188.314 319.465 185.535C366.303 175.733 396.724 116.951 393.555 116.951H393.54Z" fill="#FFA99A"/>
<path d="M273.2 112.133L273.034 112.208C273.034 112.208 268.763 114.444 264.568 117.827C258.91 122.403 256.012 126.828 255.967 130.967C255.952 132.915 256.556 136.268 257.597 139.968C258.487 143.14 260.132 148.109 262.893 153.788C267.058 162.351 274.512 174.026 286.418 181.004L286.644 181.14L286.78 180.913C289.738 176.05 291.805 171.307 294.008 166.293L294.114 166.021C295.442 162.97 296.483 159.859 297.494 156.869C297.826 155.872 298.173 154.845 298.535 153.818C298.807 153.002 298.943 152.187 299.063 151.401C299.184 150.631 299.32 149.846 299.576 149.075L301.161 145.375C301.342 144.801 301.402 144.242 301.432 143.699C301.478 143.17 301.523 142.672 301.689 142.173C302.051 141.101 302.564 140.044 303.319 138.85L303.439 138.654L273.184 112.118L273.2 112.133Z" fill="#F1F1F1"/>
<mask id="mask1_2242_2760" style="mask-type:luminance" maskUnits="userSpaceOnUse" x="255" y="112" width="49" height="70">
<path d="M273.2 112.133L273.034 112.208C273.034 112.208 268.763 114.444 264.568 117.827C258.91 122.403 256.012 126.828 255.967 130.967C255.952 132.915 256.556 136.268 257.597 139.968C258.487 143.14 260.132 148.109 262.893 153.788C267.058 162.351 274.512 174.026 286.418 181.004L286.644 181.14L286.78 180.913C289.738 176.05 291.805 171.307 294.008 166.293L294.114 166.021C295.442 162.97 296.483 159.859 297.494 156.869C297.826 155.872 298.173 154.845 298.535 153.818C298.807 153.002 298.943 152.187 299.063 151.401C299.184 150.631 299.32 149.846 299.576 149.075L301.161 145.375C301.342 144.801 301.402 144.242 301.432 143.699C301.478 143.17 301.523 142.672 301.689 142.173C302.051 141.101 302.564 140.044 303.319 138.85L303.439 138.654L273.184 112.118L273.2 112.133Z" fill="white"/>
</mask>
<g mask="url(#mask1_2242_2760)">
<path d="M241.617 121.029L301.418 110.109" stroke="#918F8F" stroke-width="0.94" stroke-miterlimit="10"/>
<path d="M243.096 128.837L302.066 114.051" stroke="#918F8F" stroke-width="0.94" stroke-miterlimit="10"/>
<path d="M245.389 139.454L302.579 118.854" stroke="#918F8F" stroke-width="0.94" stroke-miterlimit="10"/>
<path d="M246.854 147.55L304.059 126.949" stroke="#918F8F" stroke-width="0.94" stroke-miterlimit="10"/>
<path d="M248.332 155.645L305.537 135.044" stroke="#918F8F" stroke-width="0.94" stroke-miterlimit="10"/>
<path d="M251.35 167.29L305.476 139.59" stroke="#918F8F" stroke-width="0.94" stroke-miterlimit="10"/>
<path d="M253.312 178.089L314.049 143.653" stroke="#918F8F" stroke-width="0.94" stroke-miterlimit="10"/>
<path d="M257.566 188.178L318.303 153.742" stroke="#918F8F" stroke-width="0.94" stroke-miterlimit="10"/>
<path d="M261.355 202.239L318.621 162.291" stroke="#918F8F" stroke-width="0.94" stroke-miterlimit="10"/>
<path d="M274.09 212.479L327.975 168.045" stroke="#918F8F" stroke-width="0.94" stroke-miterlimit="10"/>
<path d="M286.494 222.704L338.825 176.488" stroke="#918F8F" stroke-width="0.94" stroke-miterlimit="10"/>
</g>
</g>
<defs>
<clipPath id="clip0_2242_2760">
<rect width="444" height="263" fill="white"/>
</clipPath>
</defs>
</svg>
