<svg width="209" height="267" viewBox="0 0 209 267" fill="none" xmlns="http://www.w3.org/2000/svg">
<path d="M189.18 231.611C189.18 231.611 189.114 231.544 189.08 231.56C186.987 231.98 181.78 232.92 181.362 233.004C181.261 233.02 182.249 233.003 182.668 232.92C183.471 235.521 192.077 263.092 197.251 266.482C197.301 266.516 197.368 266.482 197.368 266.415C197.368 264.368 189.616 234.245 189.164 231.611H189.18Z" fill="#AE7E4A"/>
<path d="M36.702 231.611C36.702 231.611 36.635 231.544 36.6015 231.56C34.5087 231.98 29.3017 232.92 28.8831 233.004C28.7826 233.02 29.7705 233.003 30.189 232.92C30.9927 235.521 39.5985 263.092 44.772 266.482C44.8222 266.516 44.8892 266.482 44.8892 266.415C44.8892 264.368 37.1205 234.245 36.6852 231.611H36.702Z" fill="#AE7E4A"/>
<path d="M168.687 231.611C168.687 231.611 168.754 231.544 168.788 231.56C170.881 231.98 176.071 232.92 176.506 233.004C176.607 233.02 175.619 233.003 175.2 232.92C174.396 235.521 165.807 263.092 160.617 266.482C160.567 266.516 160.5 266.482 160.5 266.415C160.5 264.368 168.269 234.245 168.704 231.611H168.687Z" fill="#AE7E4A"/>
<path d="M8.18917 231.611C8.18917 231.611 8.25614 231.544 8.28962 231.56C10.3825 231.98 15.5727 232.92 16.008 233.004C16.1085 233.02 15.1207 233.003 14.7021 232.92C13.8985 235.521 5.29267 263.092 0.119153 266.482C0.0689242 266.516 0.00195312 266.482 0.00195312 266.415C0.00195312 264.368 7.7706 234.245 8.20591 231.611H8.18917Z" fill="#AE7E4A"/>
<path d="M207.93 109.493C207.076 96.6724 204.062 87.2749 190.233 85.1437C177.09 83.1132 163.076 83.432 149.883 84.9423C146.969 85.278 93.627 94.3734 84.7031 97.8639C75.6955 101.388 69.4002 109.913 66.6376 118.958C60.2921 139.7 69.7853 163.563 62.318 183.7C58.9192 192.863 48.9405 192.728 40.7868 191.671C30.1719 190.295 19.9588 189.204 11.9892 197.813C4.37127 206.053 2.71374 223.975 3.50065 237.803C20.8796 239.75 193.598 233.339 203.577 233.641C210.659 201.673 207.428 160.458 208.65 150.054C209.386 143.811 208.851 122.986 207.947 109.477L207.93 109.493Z" fill="#AE7E4A"/>
<g style="mix-blend-mode:multiply" opacity="0.25">
<path d="M55.5876 194.373C55.5876 194.977 41.8083 204.089 42.612 204.66C56.8433 197.074 67.9438 199.692 72.4476 200.313C74.1553 200.548 65.4658 203.988 67.3578 204.173C69.233 204.374 81.6896 201.32 83.7155 201.471C89.7596 201.924 96.4735 202.159 103.556 202.159C130.043 202.159 151.524 198.669 151.524 194.356C151.524 190.043 130.043 185.109 103.556 185.109C77.0686 185.109 55.5876 190.043 55.5876 194.356V194.373Z" fill="#AE7E4A"/>
</g>
<path d="M203.579 233.641C210.661 201.673 207.43 160.458 208.652 150.053C209.389 143.811 208.853 122.985 207.949 109.476C207.246 98.9713 205.103 90.782 196.748 86.9727C192.83 91.0169 189.984 96.1688 188.36 101.505C182.014 122.247 194.505 163.562 187.037 183.7C183.639 192.863 173.66 192.728 165.506 191.671C154.891 190.295 144.678 189.204 136.709 197.813C129.459 205.633 127.6 222.213 128.12 235.705C166.293 234.581 199.377 233.507 203.579 233.641Z" fill="#DCBB8E"/>
<g style="mix-blend-mode:multiply" opacity="0.25">
<path d="M154.406 186.569C160.584 181.82 162.125 143.71 160.501 139.733C159.211 136.561 158.525 99.2227 158.29 84.1699C155.461 84.3713 152.665 84.6398 149.902 84.9586C149.233 85.0426 145.934 85.5628 141.146 86.385L128.02 91.5369L134.717 190.446C134.717 190.446 148.228 191.335 154.406 186.586V186.569Z" fill="#AE7E4A"/>
</g>
<path d="M68.6807 188.13C67.2408 184.22 51.4524 156.128 50.046 155.205C47.4006 153.46 34.6259 156.497 31.6289 157.42C31.6122 157.37 31.5787 157.319 31.562 157.269C31.5117 157.403 31.4615 157.537 31.3945 157.672C31.4448 157.672 31.495 157.638 31.5452 157.621C33.1358 161.028 48.9912 183.632 50.4311 187.442C51.1343 189.288 51.2849 191.318 50.7659 193.231C50.2636 195.094 49.1754 196.738 47.9866 198.215C46.2621 200.397 44.2865 202.377 42.495 204.508C42.4448 204.575 42.495 204.693 42.5954 204.642C50.9166 199.541 58.4676 193.131 67.2743 188.851C67.7263 188.633 68.1784 188.432 68.6305 188.23C68.6639 188.23 68.6807 188.163 68.6639 188.13H68.6807Z" fill="#FFA99A"/>
<path d="M51.4353 148.845C50.9162 147.351 50.1796 145.925 49.4261 144.549C48.0197 141.981 46.2785 139.582 45.1065 136.88C43.1643 132.366 41.6407 127.684 40.4018 122.935C39.7823 120.602 39.2298 118.236 38.7108 115.87C38.2587 113.856 37.9238 111.792 37.3211 109.812C36.283 106.304 34.7595 102.931 34.14 99.3065C33.9056 97.8968 33.7884 96.3026 34.4246 94.9601C35.0441 95.1111 35.6636 95.279 36.2663 95.4636C36.2663 95.4636 36.2831 95.4636 36.2998 95.4636C36.2998 95.4636 36.2998 95.4636 36.2998 95.4468C36.2998 95.4468 36.2998 95.4468 36.2998 95.43C36.2998 95.43 36.2998 95.43 36.2998 95.4132C36.2998 95.4132 36.2998 95.4132 36.2831 95.4132C30.4733 93.6344 24.0441 93.6344 18.2176 95.4132C12.3241 97.2088 7.13389 101.102 4.50527 106.791C2.98168 110.08 2.32871 113.772 2.81425 117.363C3.36676 121.441 5.19172 125.25 7.05017 128.875C8.97559 132.668 16.5266 152.319 17.4809 154.701C19.1217 158.779 20.796 162.857 22.1856 167.019C22.1856 167.069 22.2526 167.103 22.3028 167.069C26.2374 164.334 30.4231 161.968 34.7762 159.971C37.003 158.964 39.2633 158.058 41.5738 157.252C41.9588 157.118 42.3607 157.034 42.6955 156.833C42.9299 156.698 43.1643 156.598 43.4155 156.497C44.035 156.245 44.6879 156.027 45.3409 155.826C46.831 155.339 48.3378 154.886 49.7777 154.265C50.3135 154.047 50.8325 153.795 51.3013 153.46C51.6697 153.191 51.8203 152.906 51.9041 152.47C52.1217 151.312 51.7534 150.053 51.3683 148.962L51.4353 148.845Z" fill="#4E4D4D"/>
<g style="mix-blend-mode:multiply" opacity="0.25">
<path d="M51.4355 148.845C48.2544 139.867 42.8967 132.4 40.402 122.935C38.7445 116.659 31.6121 100.868 34.4416 94.9607C28.3807 93.5343 36.6684 96.085 36.3838 95.3467C36.1661 94.8264 30.5071 94.1216 30.1555 94.0881C24.2453 93.5511 21.5832 100.717 20.8967 106.036C19.4568 117.28 35.2955 159.35 41.6578 157.135C46.0444 155.608 53.6288 155.021 51.4523 148.829C50.9332 147.335 51.8374 149.919 51.4523 148.829L51.4355 148.845Z" fill="#918F8F"/>
</g>
<path d="M118.258 74.0508C118.157 74.0508 118.157 74.2192 118.258 74.2192C118.359 74.2192 118.359 74.0508 118.258 74.0508Z" fill="#AE7E4A"/>
<path d="M156.214 128.154C154.958 123.439 153.267 118.841 152.246 114.075C151.224 109.242 150.739 104.325 150.236 99.4079C149.985 96.9075 149.734 94.4071 149.416 91.9235C149.165 89.9097 148.813 87.9463 148.026 86.05C146.637 82.7777 144.259 80.143 141.413 78.0789C139.923 76.9881 138.316 76.0484 136.658 75.2093C134.933 74.3199 133.142 73.3969 131.284 72.8431C128.035 71.8698 124.787 72.6418 121.656 73.6822C119.346 74.4542 117.052 75.2261 114.675 75.4946C114.876 75.4442 115.06 75.4107 115.261 75.3603C116.449 75.0751 116.784 74.7562 115.88 75.0247C115.177 75.2429 114.474 75.3771 113.771 75.5617C113.017 75.5953 109.635 77.1056 108.765 77.5083C106.404 78.6159 104.16 80.0759 102.469 82.0729C100.778 84.053 99.7737 86.4863 99.1207 88.9867C98.1831 92.6115 97.865 96.4376 97.8483 100.163C97.8148 105.214 98.3171 110.265 98.6519 115.3C98.8194 117.867 98.9533 120.452 98.97 123.019C98.97 125.285 98.8528 127.55 98.7021 129.816C98.2166 136.981 97.4967 145.137 102.787 150.843C103.909 152.051 105.265 153.041 106.621 153.997C107.727 154.769 108.882 155.491 110.054 156.179C112.548 157.622 115.16 158.847 117.856 159.888C123.364 162.019 129.274 163.412 135.201 163.479C140.509 163.546 146.034 162.455 150.37 159.233C152.513 157.639 154.238 155.575 155.51 153.242C156.214 151.933 156.766 150.54 157.201 149.097C157.871 146.865 158.106 144.415 158.172 142.099C158.323 137.367 157.419 132.685 156.197 128.154H156.214Z" fill="#EC6B53"/>
<path d="M142.351 77.9277C142.25 77.9277 142.25 78.0962 142.351 78.0962C142.452 78.0962 142.452 77.9277 142.351 77.9277Z" fill="#EC6B53"/>
<path d="M44.0191 154.735C43.9181 154.735 43.9181 154.904 44.0191 154.904C44.12 154.904 44.12 154.735 44.0191 154.735Z" fill="#4E4D4D"/>
<path d="M183.806 227.684C183.705 227.684 183.705 227.852 183.806 227.852C183.907 227.852 183.907 227.684 183.806 227.684Z" fill="#2B5877"/>
<path d="M181.395 233.49C181.294 233.49 181.294 233.659 181.395 233.659C181.496 233.659 181.496 233.49 181.395 233.49Z" fill="#2B5877"/>
<path d="M91.9693 192.46C87.9008 183.616 77.9221 152.822 77.8886 152.822C74.5568 152.822 64.5949 154.819 61.9662 155.457C61.8993 155.558 69.8856 172.977 72.2296 176.954C74.5233 180.847 76.8171 184.757 78.7927 188.818C79.2615 189.775 79.6968 190.748 80.1321 191.721C80.1656 191.805 80.2996 191.973 80.1991 192.057C80.0987 192.141 79.9982 192.208 79.8977 192.292C79.6968 192.46 79.4792 192.611 79.2783 192.778C78.8095 193.148 78.3574 193.517 77.8886 193.886C76.0302 195.38 74.2219 196.907 72.4807 198.518C70.6222 200.246 68.8475 202.059 67.2904 204.056C67.2402 204.123 67.2904 204.223 67.3909 204.19C75.4107 199.944 84.2509 197.41 91.9693 192.594C92.0028 192.56 92.0195 192.527 92.0028 192.476L91.9693 192.46Z" fill="#FFA99A"/>
<mask id="mask0_2242_3512" style="mask-type:luminance" maskUnits="userSpaceOnUse" x="97" y="72" width="62" height="92">
<path d="M156.214 128.154C154.958 123.439 153.267 118.841 152.246 114.075C151.224 109.242 150.739 104.325 150.236 99.4079C149.985 96.9075 149.734 94.4071 149.416 91.9235C149.165 89.9097 148.813 87.9463 148.026 86.05C146.637 82.7777 144.259 80.143 141.413 78.0789C139.923 76.9881 138.316 76.0484 136.658 75.2093C134.933 74.3199 133.142 73.3969 131.284 72.8431C128.035 71.8698 124.787 72.6418 121.656 73.6822C119.346 74.4542 117.052 75.2261 114.675 75.4946C114.876 75.4442 115.06 75.4107 115.261 75.3603C116.449 75.0751 116.784 74.7562 115.88 75.0247C115.177 75.2429 114.474 75.3771 113.771 75.5617C113.017 75.5953 109.635 77.1056 108.765 77.5083C106.404 78.6159 104.16 80.0759 102.469 82.0729C100.778 84.053 99.7737 86.4863 99.1207 88.9867C98.1831 92.6115 97.865 96.4376 97.8483 100.163C97.8148 105.214 98.3171 110.265 98.6519 115.3C98.8194 117.867 98.9533 120.452 98.97 123.019C98.97 125.285 98.8528 127.55 98.7021 129.816C98.2166 136.981 97.4967 145.137 102.787 150.843C103.909 152.051 105.265 153.041 106.621 153.997C107.727 154.769 108.882 155.491 110.054 156.179C112.548 157.622 115.16 158.847 117.856 159.888C123.364 162.019 129.274 163.412 135.201 163.479C140.509 163.546 146.034 162.455 150.37 159.233C152.513 157.639 154.238 155.575 155.51 153.242C156.214 151.933 156.766 150.54 157.201 149.097C157.871 146.865 158.106 144.415 158.172 142.099C158.323 137.367 157.419 132.685 156.197 128.154H156.214Z" fill="white"/>
</mask>
<g mask="url(#mask0_2242_3512)">
<path d="M89.8115 78.7666H153.283" stroke="#EC6B53" stroke-width="0.48" stroke-miterlimit="10"/>
<path d="M89.8115 89.0029H153.283" stroke="#EC6B53" stroke-width="0.48" stroke-miterlimit="10"/>
<path d="M89.8115 99.2402H153.283" stroke="#EC6B53" stroke-width="0.48" stroke-miterlimit="10"/>
<path d="M89.8115 109.477H153.283" stroke="#EC6B53" stroke-width="0.48" stroke-miterlimit="10"/>
<path d="M89.8115 119.713H153.283" stroke="#EC6B53" stroke-width="0.48" stroke-miterlimit="10"/>
<path d="M89.8115 129.966H153.283" stroke="#EC6B53" stroke-width="0.48" stroke-miterlimit="10"/>
<path d="M89.8115 140.203H153.283" stroke="#EC6B53" stroke-width="0.48" stroke-miterlimit="10"/>
<path d="M89.8115 150.439H153.283" stroke="#EC6B53" stroke-width="0.48" stroke-miterlimit="10"/>
</g>
<path d="M88.406 115.97L85.5263 104.979L76.9707 117.95L88.406 115.97Z" fill="#2B5877"/>
<path d="M119.212 25.7373C119.111 25.7373 119.111 25.9057 119.212 25.9057C119.313 25.9057 119.313 25.7373 119.212 25.7373Z" fill="#2B5877"/>
<path d="M121.741 28.9598C121.657 27.7684 121.021 26.6944 120.2 25.8385C119.38 24.9827 118.359 24.345 117.321 23.808C117.22 23.7576 117.153 23.8919 117.237 23.9422C119.648 25.1673 122.293 27.4495 121.423 30.4534C120.87 32.3832 118.861 33.9103 116.835 33.7257C114.273 33.4908 112.8 30.252 113.386 27.9697C114.056 25.3183 117.538 24.8316 119.665 25.8721C119.765 25.9224 119.832 25.7714 119.748 25.7378C117.639 24.6974 114.441 25.0834 113.386 27.4495C112.415 29.6646 113.771 32.937 116.082 33.7257C117.923 34.3466 119.932 33.2726 120.971 31.7623C121.54 30.94 121.808 29.9331 121.741 28.9431V28.9598Z" fill="#2B5877"/>
<path d="M135.503 38.7599C134.515 32.2991 132.942 25.8551 130.363 19.8307C128.036 14.3767 124.771 9.09064 119.999 5.46589C117.672 3.70386 115.077 2.54595 112.298 1.70688C109.117 0.73357 105.751 0.381163 102.436 0.548976C95.7727 0.884602 89.2765 3.38501 83.9188 7.32861C78.6281 11.2386 74.4424 16.7093 72.5002 23.0359C71.4789 26.3586 71.1776 29.8323 71.4622 33.306C71.864 38.139 72.7514 42.9049 73.7727 47.6372C75.5977 56.1453 77.8914 64.5695 79.1304 73.1951C79.1304 73.2287 79.1806 73.2622 79.2141 73.2622C83.7346 73.2622 129.66 56.3467 136.575 56.3467C136.625 56.3467 136.659 56.3131 136.659 56.2628C136.826 50.4229 136.391 44.5495 135.503 38.7599Z" fill="#4E4D4D"/>
<g style="mix-blend-mode:multiply" opacity="0.25">
<path d="M119.598 55.9941C118.024 50.708 117.07 45.2373 115.345 39.9847C115.127 39.3303 114.91 38.6758 114.659 38.0381C114.541 37.7528 114.441 37.4508 114.324 37.1655C114.29 37.0984 114.274 37.0312 114.24 36.9641C114.24 36.9473 114.223 36.9305 114.223 36.9138C113.721 35.7894 113.168 34.6819 112.516 33.6582C112.331 33.3729 112.164 33.1044 111.963 32.8359C111.896 32.752 111.846 32.6681 111.779 32.5842C111.461 32.1982 111.126 31.8123 110.758 31.4431C110.54 31.2249 110.305 31.0068 110.071 30.8054C110.004 30.755 109.937 30.6879 109.87 30.6376C109.468 30.3523 109.033 30.067 108.598 29.8321C108.414 29.7314 108.229 29.6475 108.045 29.5468C107.895 29.4797 107.66 29.3958 107.56 29.3622C107.007 29.1776 106.438 29.0266 105.869 28.9091C105.751 28.8923 105.634 28.8755 105.517 28.842C105.5 28.842 105.484 28.842 105.467 28.842C105.149 28.8084 104.831 28.7916 104.496 28.7748C103.809 28.7581 103.123 28.7748 102.436 28.8252C102.185 28.842 101.951 28.8588 101.7 28.8923C101.7 28.8923 101.683 28.8923 101.666 28.8923C101.315 28.9427 100.946 29.0098 100.595 29.0769C99.858 29.2279 99.1213 29.379 98.4014 29.5971C98.0163 29.7146 97.6312 29.8321 97.2461 29.9663C97.0954 30.0167 96.928 30.0838 96.7773 30.1509C96.2248 30.4026 95.6723 30.6711 95.1533 30.99C94.8352 31.1746 94.5338 31.3759 94.2324 31.5773C94.0985 31.6612 93.7301 31.9633 93.6464 32.0136C93.2948 32.3157 92.9432 32.6345 92.6084 32.9534C92.2233 33.3394 91.8549 33.7421 91.5034 34.1616C91.4029 34.2959 91.202 34.5644 91.1183 34.6651C90.9508 34.9168 90.7667 35.1685 90.616 35.437C90.2644 36.0076 89.9295 36.5949 89.6282 37.199C89.4942 37.4843 89.3435 37.7696 89.2263 38.0549C89.1928 38.122 89.1594 38.2059 89.1259 38.273C89.1259 38.3066 89.0924 38.3402 89.0924 38.357C88.5901 39.6323 88.1715 40.9413 87.8367 42.2838C87.4851 43.6766 87.2172 45.0862 87.0163 46.5127C87.0163 46.563 87.0163 46.6133 86.9995 46.6469C86.9828 46.7979 86.9661 46.949 86.9493 47.1C86.9158 47.4524 86.8656 47.8048 86.8321 48.1572C86.7651 48.8788 86.6982 49.5836 86.6479 50.3052C86.447 53.3259 86.4303 56.3465 86.4973 59.3671C86.581 63.3275 86.8656 67.2711 86.9995 71.2147C95.7728 68.5297 109.971 63.6631 121.088 60.223C120.519 58.8301 120.033 57.4037 119.598 55.9605V55.9941Z" fill="#4E4D4D"/>
</g>
<path d="M134.7 76.0148C128.99 68.9163 125.391 60.4753 123.114 51.6819C122.009 47.4027 121.205 43.0396 120.552 38.6596C119.933 34.5482 119.464 30.42 118.811 26.3254C118.175 22.3482 117.354 18.2872 115.647 14.6121C114.994 13.2192 114.24 11.8599 113.051 10.8363C112.03 9.94688 110.875 9.24207 109.669 8.62116C106.572 7.0605 95.7728 10.3832 91.1518 16.5419C89.8292 18.304 88.5902 20.1331 87.5019 22.063C86.4806 23.8753 85.6435 25.8052 84.89 27.735C83.2827 31.8297 81.0057 51.4805 81.2736 51.5309C84.4212 52.2189 85.7607 51.4638 87.6693 48.7116C98.167 69.319 110.205 60.3243 111.025 57.4379C112.7 61.2808 113.738 82.8951 114.508 83.6838C115.295 84.5061 133.913 76.4343 134.666 76.0987C134.717 76.0819 134.717 76.0148 134.683 75.9644L134.7 76.0148Z" fill="#FFA99A"/>
<path d="M98.3509 8.47006C98.3509 8.47006 101.566 25.2178 116.986 30.0508C132.406 34.8838 113.453 8.47006 113.453 8.47006L100.913 5.88574L90.3144 11.0376L78.7451 18.2535V39.0455C78.7451 39.0455 96.7436 23.2711 98.3509 8.45328V8.47006Z" fill="#4E4D4D"/>
<path d="M123.365 30.9898C123.365 33.4399 121.389 35.4201 118.945 35.4201C116.5 35.4201 114.524 33.4399 114.524 30.9898C114.524 28.5398 116.5 26.5596 118.945 26.5596C121.389 26.5596 123.365 28.5398 123.365 30.9898Z" fill="#FFA99A"/>
<path d="M93.5622 38.3904C93.5622 39.0952 92.9929 39.649 92.3065 39.649C91.62 39.649 91.0508 39.0785 91.0508 38.3904C91.0508 37.7024 91.62 37.1318 92.3065 37.1318C92.9929 37.1318 93.5622 37.7024 93.5622 38.3904Z" fill="#4E4D4D"/>
<path d="M123.532 34.0612C123.532 35.7561 122.159 37.1322 120.468 37.1322C118.777 37.1322 117.404 35.7561 117.404 34.0612C117.404 32.3663 118.777 30.9902 120.468 30.9902C122.159 30.9902 123.532 32.3663 123.532 34.0612Z" fill="#FAFAFA"/>
<path d="M101.448 111.271L116.349 152.822L91.9886 156.296L78.7451 116.49L101.448 111.271Z" fill="#DBDBDB"/>
<path d="M154.939 144.616C154.939 144.616 154.855 144.582 154.822 144.616C149.531 148.962 144.073 153.577 137.744 156.346C136.338 156.967 109.449 156.145 104.694 153.208C99.5203 150.003 95.0668 145.69 91.9526 140.454C90.7304 138.39 89.7258 136.192 88.7045 134.027C87.633 131.728 86.5949 129.412 85.5401 127.096C84.1505 123.992 82.7441 120.853 81.254 117.766C78.0059 111.003 74.356 104.408 69.5508 98.6854C66.3697 94.9096 62.5858 91.5702 58.0987 89.4725C53.2601 87.207 47.5843 86.5861 42.327 87.2909C37.3879 87.9454 32.6665 90.0431 29.117 93.6007C25.6178 97.1248 23.6756 101.874 23.257 106.791C23.0059 109.761 23.3742 112.698 23.9435 115.618C24.6467 119.242 25.7182 122.783 27.0241 126.24C29.569 132.986 33.0348 139.33 36.4503 145.673C38.9283 150.288 41.3727 154.919 43.4823 159.719C43.4823 159.752 43.5493 159.769 43.566 159.752C49.5934 157.873 74.7745 152.369 77.8887 152.839C79.5462 157.839 82.0241 163.595 83.531 165.878C85.1718 168.345 86.6451 170.912 88.2022 173.446C89.6421 175.779 91.1322 178.111 92.9069 180.192C95.1505 182.844 97.7791 185.243 100.491 187.408C105.514 191.402 111.29 194.473 117.536 195.966C123.412 197.359 129.423 196.621 135.333 195.48C158.957 190.982 158.924 147.888 154.939 144.633V144.616Z" fill="#918F8F"/>
<path d="M150.119 86.6872C149.868 84.5392 146.201 78.2127 142.099 78.8C134.716 79.8573 131.166 80.1425 133.628 99.6256C133.946 102.126 140.341 138.894 141.279 142.636C133.36 141.998 125.223 139.431 117.956 136.075C114.524 134.48 107.693 123.707 91.5028 122.498C90.2639 122.398 93.4617 124.026 94.4998 124.68C96.6931 126.056 99.0371 127.164 101.247 128.54C101.498 128.691 101.749 128.859 101.984 129.026C98.518 128.053 94.5333 127.298 91.2349 129.144C91.1847 129.161 91.1847 129.228 91.2349 129.278C93.1604 130.939 95.6718 131.46 98.0492 132.081C100.728 132.769 103.273 133.742 105.098 135.907C102.419 135.907 99.7403 135.856 97.0949 135.42C97.0447 135.42 96.9777 135.454 96.9944 135.521C97.8483 138.055 143.02 159.333 146.486 159.753C148.947 160.055 151.944 160.223 154.171 158.897C155.762 157.941 158.959 154.685 158.959 148.392C158.959 145.724 150.454 89.2548 150.169 86.6872H150.119Z" fill="#FFA99A"/>
<g style="mix-blend-mode:multiply" opacity="0.25">
<path d="M77.891 152.822C79.5485 157.823 82.0264 163.579 83.5333 165.861C85.1741 168.328 86.6474 170.896 88.2045 173.43C89.6444 175.762 91.1345 178.095 92.9092 180.176C95.1528 182.827 97.7814 185.227 100.494 187.392C105.517 191.386 111.293 194.457 117.538 195.95C123.415 197.343 129.425 196.605 135.335 195.463C142.987 194.003 148.144 188.499 151.509 181.619C126.177 202.444 88.2547 194.675 68.6824 115.685C59.8088 105.583 77.8742 152.822 77.8742 152.822H77.891Z" fill="#918F8F"/>
</g>
</svg>
