<svg width="327" height="340" viewBox="0 0 327 340" fill="none" xmlns="http://www.w3.org/2000/svg">
<g style="mix-blend-mode:multiply" opacity="0.25">
<path d="M299.23 333.716C299.23 337.182 240.98 340 169.116 340C97.252 340 39.002 337.182 39.002 333.716C39.002 330.249 97.252 327.431 169.116 327.431C240.98 327.431 299.23 330.249 299.23 333.716Z" fill="#4E4D4D"/>
</g>
<path d="M80.9378 116.408C80.9378 116.408 34.6502 103.861 11.9528 141.503C-0.545331 162.236 -25.5862 281.267 78.4828 323.203C184.382 365.855 220.85 291.869 237.298 272.97C253.746 254.093 80.9378 116.386 80.9378 116.386V116.408Z" fill="#EC6B53"/>
<g style="mix-blend-mode:multiply" opacity="0.25">
<path d="M80.9377 116.409C80.9377 116.409 63.7975 111.757 45.2735 116.61C40.0064 145.596 32.5299 204.173 49.2684 241.278C71.0285 289.521 115.999 351.296 202.973 312.67C220.202 298.132 230.469 280.821 237.276 272.993C253.724 254.116 80.9154 116.409 80.9154 116.409H80.9377Z" fill="#EC6B53"/>
</g>
<path d="M241.226 120.389C236.517 120.389 224.8 136.761 224.8 136.761C224.8 136.761 217.524 118.376 215.962 121.887C214.4 125.421 210.762 153.267 210.762 153.267C210.762 153.267 193.532 175.185 155.971 175.968C118.41 176.751 100.02 137.678 100.02 137.678C99.0153 139.266 98.502 197.752 94.083 205.044C107.005 212.626 123.074 216.204 142.781 212.089C212.056 197.574 245.913 120.389 241.203 120.389H241.226Z" fill="#4E4D4D"/>
<path d="M258.589 266.305L227.679 332.978H280.506L248.412 320.43L277.76 266.305H258.589Z" fill="#EC6B53"/>
<path d="M311.93 147.876C253.39 138.974 227.233 222.042 176.549 225.441C177.486 232.039 107.028 292.45 106.515 292.472C106.314 292.696 106.113 292.919 105.912 293.12C125.954 310.745 152.177 322.219 184.717 324.478C217.659 321.234 243.458 284.375 259.951 252.101L280.484 202.986C280.484 202.986 273.253 226.045 259.951 252.101L253.702 267.064L302.735 270.889C302.735 270.889 350.54 153.736 311.952 147.876H311.93Z" fill="#2B5877"/>
<path d="M84.8212 116.475C88.2135 116.475 99.685 118.041 99.685 118.041C100.198 118.309 100.979 117.773 101.247 118.041C101.515 118.309 101.805 118.533 102.095 118.712C99.7519 106.344 98.5914 92.3425 99.2832 76.4403C120.24 81.6963 131.466 56.9372 131.466 56.9372C131.466 56.9372 137.782 60.7171 142.692 58.4358C137.447 50.2722 133.095 2.34198 114.169 12.1159C111.871 13.3013 99.8412 12.1159 97.0961 15.18C93.369 19.3401 98.703 28.5772 93.9939 36.9421C92.9896 29.4942 81.6743 28.3983 77.3446 34.7726C71.6312 43.1822 76.742 52.3299 84.2186 51.5918C72.2115 70.6028 63.2396 91.2913 57.3477 112.517C62.9048 113.501 81.161 116.185 84.8212 116.453V116.475Z" fill="#FFA99A"/>
<path d="M249.06 253.735C263.343 228.216 271.422 205.447 271.422 205.447L249.06 253.735Z" stroke="#FFA99A" stroke-width="0.171421" stroke-miterlimit="10"/>
<path d="M96.2255 39.2456C97.6539 36.4946 80.1789 27.4811 80.96 21.9791C81.7411 16.4995 89.5748 -2.33266 107.563 6.30059C134.389 19.161 140.817 -7.4321 154.922 2.11816C162.867 7.50835 171.571 32.3569 151.797 35.7118C131.064 39.2456 135.728 23.4329 127.538 19.6307C113.723 13.1893 101.47 14.8891 99.7518 16.1192C108.746 29.0691 96.2255 39.268 96.2255 39.268V39.2456Z" fill="#252525"/>
<path d="M74.3095 135.33C74.3095 135.33 49.4472 148.28 49.291 162.773C49.1125 177.266 73.5284 258.074 142.804 243.559C212.079 229.043 257.072 141.995 252.385 141.995C247.698 141.995 227.746 158.456 227.746 158.456C227.746 158.456 219.131 146.289 217.569 149.823C216.007 153.357 223.439 165.502 223.439 165.502L138.898 192.005L74.3318 135.308L74.3095 135.33Z" fill="#FFA99A" stroke="#FFA99A" stroke-width="0.171421" stroke-miterlimit="10"/>
<path d="M250.622 91.917C251.738 92.4761 268.298 124.527 268.298 124.527L240.244 181.604L214.154 162.772L249.394 94.3325L250.644 91.917H250.622Z" fill="#252525"/>
<path d="M261.825 120.389L247.252 91.917L224.8 136.761L234.33 145.618L261.825 120.389Z" fill="#DBDBDB"/>
<path d="M129.167 41.8178C129.167 42.6677 128.475 43.3386 127.649 43.3386C126.824 43.3386 126.132 42.6453 126.132 41.8178C126.132 40.9902 126.824 40.2969 127.649 40.2969C128.475 40.2969 129.167 40.9902 129.167 41.8178Z" fill="#252525"/>
<path d="M236.584 175.991L194.492 162.773L225.648 105.695L238.392 109.632L240.088 107.417L261.826 120.39L236.584 175.991Z" fill="#FAFAFA"/>
<path d="M268.298 124.527L230.692 109.631L196.188 168.118L240.222 181.604L268.298 124.527Z" fill="#252525"/>
<path d="M114.839 282.766C115.107 282.498 125.797 279.881 126.311 278.852C126.578 278.584 127.36 279.121 127.873 278.852C129.435 277.555 131.265 277.287 132.56 275.721C132.828 275.453 133.609 275.99 134.122 275.721C137.001 273.373 140.126 271.539 141.688 268.407C142.982 266.059 143.786 266.059 145.08 265.276C145.348 265.276 144.812 264.225 145.08 263.957C145.348 263.688 146.375 264.225 146.642 263.957C146.91 263.174 146.375 262.391 146.642 261.608H147.424V260.825C147.937 260.557 148.718 260.311 148.718 260.043C148.986 257.694 150.012 258.209 150.28 257.694C151.843 255.346 153.405 253.243 154.967 250.895C160.189 242.262 163.314 233.114 166.706 223.966C167.242 222.401 167.242 220.835 167.755 219.27C168.023 218.487 167.755 217.704 167.755 216.921C168.023 216.138 168.536 215.355 168.536 214.573C168.313 207.952 169.161 201.332 168.469 194.712C155.48 198.939 145.951 200.348 142.67 196.501C132.247 184.312 110.13 161.275 102.073 118.757C101.783 118.578 101.493 118.354 101.225 118.086C100.957 117.818 62.8605 113.568 57.3256 112.584C39.2257 177.848 50.4517 248.01 93.5478 288.939C93.771 288.738 93.9719 288.514 94.1727 288.313C94.686 288.313 113.746 284.399 114.795 282.834L114.839 282.766Z" fill="#FAFAFA"/>
<g style="mix-blend-mode:multiply" opacity="0.35">
<path d="M167.799 219.224C168.045 218.486 167.844 217.77 167.799 217.032C156.015 216.831 144.276 215.846 133.385 210.792C126.511 207.616 120.128 203.053 114.37 198.177C108.724 193.391 103.479 188.157 97.6538 183.55C97.4753 183.416 97.3191 183.282 97.1405 183.147C97.0736 183.103 97.0066 183.036 96.8727 182.946C96.5156 182.678 96.1585 182.409 95.7791 182.141C95.0426 181.604 94.3061 181.09 93.5473 180.575C92.3198 179.748 91.1593 178.786 89.9541 177.891C87.2536 175.879 84.4862 173.933 81.6741 172.099C78.6835 170.175 75.6036 168.364 72.3898 166.776C71.4971 166.328 70.6044 165.903 69.6893 165.501C69.6001 165.456 69.0644 165.232 68.9305 165.188C68.6627 165.076 68.3949 164.964 68.1494 164.875C66.6094 164.293 65.0249 163.734 63.418 163.309C62.5029 163.063 61.5879 162.839 60.6728 162.66C60.2934 162.593 59.8917 162.504 59.49 162.437C59.3561 162.414 58.8428 162.347 58.7089 162.325C57.4367 162.191 56.1646 162.146 54.8925 162.191C54.2453 162.213 53.5757 162.258 52.9285 162.325C52.8615 162.325 52.7723 162.325 52.6607 162.347C52.5714 162.347 52.4821 162.37 52.3929 162.392C51.4109 162.571 50.4289 162.772 49.4692 163.063C49.4022 163.085 49.3353 163.108 49.246 163.13C48.3979 182.298 50.1164 201.13 54.4684 218.776C57.0127 221.46 59.8694 223.764 62.8154 226.068C63.0609 226.269 63.3064 226.448 63.5519 226.649C63.1501 226.336 63.1725 226.358 63.6411 226.716C63.9982 226.985 64.3553 227.275 64.7124 227.544C65.4266 228.081 66.1631 228.617 66.8773 229.154C68.3056 230.183 69.734 231.212 71.1623 232.196C74.0637 234.164 76.9873 236.043 80.0226 237.787C82.8793 239.42 85.803 240.963 88.7936 242.35C89.5077 242.663 90.1996 242.999 90.9138 243.289C91.0923 243.379 91.3825 243.468 91.4494 243.513C91.8065 243.647 92.1413 243.804 92.4984 243.938C93.8821 244.475 95.2881 244.989 96.6942 245.459C99.5732 246.421 102.497 247.226 105.465 247.852C106.983 248.165 108.523 248.456 110.063 248.68C110.085 248.68 110.107 248.68 110.13 248.68C110.487 248.724 110.844 248.769 111.201 248.814C111.915 248.881 112.629 248.948 113.343 249.015C116.334 249.239 119.325 249.306 122.338 249.172C123.922 249.105 125.507 248.993 127.069 248.814C127.426 248.769 127.805 248.724 128.185 248.68C128.274 248.68 128.542 248.635 128.721 248.613C129.323 248.523 129.926 248.434 130.551 248.322C137.09 247.204 143.473 245.325 149.633 242.887C150.146 242.686 150.681 242.462 151.217 242.238C151.306 242.216 151.887 241.948 151.998 241.903C152.668 241.612 153.337 241.321 154.007 241.008C155.636 240.27 157.265 239.487 158.85 238.704C159.787 238.235 160.702 237.765 161.617 237.273C163.425 232.867 165.032 228.394 166.684 223.898C167.219 222.333 167.219 220.767 167.732 219.201L167.799 219.224Z" fill="#FAFAFA"/>
</g>
<mask id="mask0_2242_3591" style="mask-type:luminance" maskUnits="userSpaceOnUse" x="49" y="112" width="120" height="177">
<path d="M114.839 282.767C115.107 282.499 125.797 279.882 126.311 278.853C126.578 278.585 127.36 279.122 127.873 278.853C129.435 277.556 131.265 277.288 132.56 275.722C132.828 275.454 133.609 275.991 134.122 275.722C137.001 273.374 140.126 271.54 141.688 268.408C142.982 266.06 143.786 266.06 145.08 265.277C145.348 265.277 144.812 264.226 145.08 263.958C145.348 263.689 146.375 264.226 146.642 263.958C146.91 263.175 146.375 262.392 146.642 261.609H147.424V260.826C147.937 260.558 148.718 260.312 148.718 260.044C148.986 257.695 150.012 258.21 150.28 257.695C151.843 255.347 153.405 253.244 154.967 250.896C160.189 242.263 163.314 233.115 166.706 223.967C167.242 222.402 167.242 220.836 167.755 219.27C168.023 218.488 167.755 217.705 167.755 216.922C168.023 216.139 168.536 215.356 168.536 214.574C168.313 207.953 169.161 201.333 168.469 194.713C155.48 198.94 145.951 200.349 142.67 196.502C132.247 184.313 110.13 161.276 102.073 118.758C101.783 118.579 101.493 118.355 101.225 118.087C100.957 117.819 62.8605 113.569 57.3256 112.585C39.2257 177.849 50.4517 248.011 93.5478 288.94C93.771 288.739 93.9719 288.515 94.1727 288.314C94.686 288.314 113.746 284.4 114.795 282.834L114.839 282.767Z" fill="white"/>
</mask>
<g mask="url(#mask0_2242_3591)">
<path d="M36.2129 120.392H126.11" stroke="#2B5877" stroke-width="1.3428" stroke-miterlimit="10"/>
<path d="M36.3018 132.157L126.02 126.297" stroke="#2B5877" stroke-width="1.3428" stroke-miterlimit="10"/>
<path d="M36.8154 148.237L125.507 133.431" stroke="#2B5877" stroke-width="1.3428" stroke-miterlimit="10"/>
<path d="M36.8154 160.427L125.507 145.621" stroke="#2B5877" stroke-width="1.3428" stroke-miterlimit="10"/>
<path d="M36.8154 172.616L125.507 157.81" stroke="#2B5877" stroke-width="1.3428" stroke-miterlimit="10"/>
<path d="M38.1094 190.374L124.212 164.407" stroke="#2B5877" stroke-width="1.3428" stroke-miterlimit="10"/>
<path d="M38.1094 206.634L135.617 172.615" stroke="#2B5877" stroke-width="1.3428" stroke-miterlimit="10"/>
<path d="M41.6357 222.47L139.121 188.451" stroke="#2B5877" stroke-width="1.3428" stroke-miterlimit="10"/>
<path d="M43.4219 243.942L137.336 200.977" stroke="#2B5877" stroke-width="1.3428" stroke-miterlimit="10"/>
<path d="M59.2451 262.258L149.41 211.867" stroke="#2B5877" stroke-width="1.3428" stroke-miterlimit="10"/>
<path d="M74.5557 280.465L162.98 227.033" stroke="#2B5877" stroke-width="1.3428" stroke-miterlimit="10"/>
</g>
<path d="M248.457 266.305L217.524 332.978H270.374L238.28 320.43L267.628 266.305H248.457Z" fill="#FFA99A"/>
<path d="M305.68 145.149C247.519 134.033 217.524 222.446 166.75 223.922C167.442 230.542 94.7523 288.246 94.2167 288.246C94.0158 288.47 93.7927 288.671 93.5918 288.873C112.942 307.235 138.719 319.715 171.147 323.204C204.178 321.214 231.383 285.361 249.059 253.736L271.422 205.448C271.422 205.448 263.32 228.216 249.059 253.736L242.252 268.452L291.106 274.133C291.106 274.133 344.022 152.463 305.68 145.149Z" fill="#4B7FA3"/>
<path d="M252.363 141.995C247.676 141.995 227.724 158.456 227.724 158.456C227.724 158.456 219.109 146.289 217.547 149.823C215.984 153.357 223.416 165.502 223.416 165.502L138.875 192.005L118.611 174.202C117.606 175.79 98.5244 229.222 94.1055 236.514C107.028 244.096 123.097 247.674 142.803 243.559C212.079 229.043 257.072 141.995 252.385 141.995H252.363Z" fill="#FFA99A"/>
<path d="M74.3538 134.839L74.1083 134.951C74.1083 134.951 67.7923 138.261 61.5879 143.271C53.2186 150.048 48.9336 156.601 48.8666 162.729C48.8443 165.614 49.737 170.58 51.277 176.059C52.5937 180.756 55.0264 188.114 59.1106 196.524C65.2704 209.206 76.2955 226.494 93.9044 236.827L94.2392 237.029L94.44 236.693C98.8144 229.491 101.872 222.469 105.13 215.043L105.287 214.64C107.251 210.123 108.791 205.515 110.286 201.087C110.777 199.611 111.29 198.09 111.826 196.569C112.228 195.361 112.428 194.153 112.607 192.99C112.785 191.85 112.986 190.687 113.366 189.546L115.709 184.066C115.977 183.216 116.066 182.389 116.111 181.584C116.178 180.801 116.245 180.063 116.49 179.325C117.026 177.737 117.785 176.171 118.901 174.404L119.079 174.113L74.3315 134.816L74.3538 134.839Z" fill="#FAFAFA"/>
<mask id="mask1_2242_3591" style="mask-type:luminance" maskUnits="userSpaceOnUse" x="48" y="134" width="72" height="104">
<path d="M74.3538 134.838L74.1083 134.95C74.1083 134.95 67.7923 138.26 61.5879 143.27C53.2186 150.047 48.9336 156.6 48.8666 162.728C48.8443 165.613 49.737 170.579 51.277 176.058C52.5937 180.755 55.0264 188.113 59.1106 196.523C65.2704 209.205 76.2955 226.493 93.9044 236.826L94.2392 237.028L94.44 236.692C98.8144 229.49 101.872 222.468 105.13 215.042L105.287 214.639C107.251 210.122 108.791 205.514 110.286 201.086C110.777 199.61 111.29 198.089 111.826 196.568C112.228 195.36 112.428 194.152 112.607 192.989C112.785 191.849 112.986 190.686 113.366 189.545L115.709 184.065C115.977 183.215 116.066 182.388 116.111 181.583C116.178 180.8 116.245 180.062 116.49 179.324C117.026 177.736 117.785 176.17 118.901 174.403L119.079 174.112L74.3315 134.815L74.3538 134.838Z" fill="white"/>
</mask>
<g mask="url(#mask1_2242_3591)">
<path d="M27.6426 148.013L116.089 131.843" stroke="#2B5877" stroke-width="1.3428" stroke-miterlimit="10"/>
<path d="M29.8525 159.577L117.049 137.681" stroke="#2B5877" stroke-width="1.3428" stroke-miterlimit="10"/>
<path d="M33.2217 175.299L117.829 144.792" stroke="#2B5877" stroke-width="1.3428" stroke-miterlimit="10"/>
<path d="M35.4092 187.287L120.017 156.78" stroke="#2B5877" stroke-width="1.3428" stroke-miterlimit="10"/>
<path d="M37.5967 199.276L122.204 168.769" stroke="#2B5877" stroke-width="1.3428" stroke-miterlimit="10"/>
<path d="M42.0596 216.52L122.092 175.501" stroke="#2B5877" stroke-width="1.3428" stroke-miterlimit="10"/>
<path d="M44.9619 232.511L134.792 181.517" stroke="#2B5877" stroke-width="1.3428" stroke-miterlimit="10"/>
<path d="M51.2324 247.451L141.085 196.479" stroke="#2B5877" stroke-width="1.3428" stroke-miterlimit="10"/>
<path d="M56.8564 268.274L141.553 209.116" stroke="#2B5877" stroke-width="1.3428" stroke-miterlimit="10"/>
<path d="M75.6934 283.439L155.369 217.639" stroke="#2B5877" stroke-width="1.3428" stroke-miterlimit="10"/>
<path d="M94.0391 298.603L171.438 230.141" stroke="#2B5877" stroke-width="1.3428" stroke-miterlimit="10"/>
</g>
</svg>
