<svg width="581" height="340" viewBox="0 0 581 340" fill="none" xmlns="http://www.w3.org/2000/svg">
<g style="mix-blend-mode:multiply" opacity="0.25">
<path d="M426.23 333.716C426.23 337.182 367.98 340 296.116 340C224.252 340 166.002 337.182 166.002 333.716C166.002 330.249 224.252 327.431 296.116 327.431C367.98 327.431 426.23 330.249 426.23 333.716Z" fill="#4E4D4D"/>
</g>
<path d="M207.938 116.408C207.938 116.408 161.65 103.861 138.953 141.503C126.455 162.236 101.414 281.267 205.483 323.203C311.382 365.855 347.85 291.869 364.298 272.97C380.746 254.093 207.938 116.386 207.938 116.386V116.408Z" fill="#EC6B53"/>
<g style="mix-blend-mode:multiply" opacity="0.25">
<path d="M207.938 116.409C207.938 116.409 190.797 111.757 172.273 116.61C167.006 145.596 159.53 204.173 176.268 241.278C198.029 289.521 242.999 351.296 329.973 312.67C347.202 298.132 357.469 280.821 364.276 272.993C380.724 254.116 207.915 116.409 207.915 116.409H207.938Z" fill="#EC6B53"/>
</g>
<path d="M368.227 120.389C363.518 120.389 351.801 136.761 351.801 136.761C351.801 136.761 344.525 118.376 342.963 121.887C341.4 125.421 337.763 153.267 337.763 153.267C337.763 153.267 320.533 175.185 282.972 175.968C245.411 176.751 227.021 137.678 227.021 137.678C226.016 139.266 225.503 197.752 221.084 205.044C234.006 212.626 250.075 216.204 269.782 212.089C339.057 197.574 372.914 120.389 368.204 120.389H368.227Z" fill="#4E4D4D"/>
<path d="M385.59 266.305L354.68 332.978H407.506L375.413 320.43L404.761 266.305H385.59Z" fill="#EC6B53"/>
<path d="M438.93 147.876C380.39 138.974 354.233 222.042 303.549 225.441C304.486 232.039 234.028 292.45 233.515 292.472C233.314 292.696 233.113 292.919 232.912 293.12C252.954 310.745 279.177 322.219 311.717 324.478C344.659 321.234 370.458 284.375 386.951 252.101L407.484 202.986C407.484 202.986 400.253 226.045 386.951 252.101L380.702 267.064L429.735 270.889C429.735 270.889 477.54 153.736 438.952 147.876H438.93Z" fill="#2B5877"/>
<path d="M211.821 116.475C215.213 116.475 226.685 118.041 226.685 118.041C227.198 118.309 227.979 117.773 228.247 118.041C228.515 118.309 228.805 118.533 229.095 118.712C226.752 106.344 225.591 92.3425 226.283 76.4403C247.24 81.6963 258.466 56.9372 258.466 56.9372C258.466 56.9372 264.782 60.7171 269.692 58.4358C264.447 50.2722 260.095 2.34198 241.169 12.1159C238.871 13.3013 226.841 12.1159 224.096 15.18C220.369 19.3401 225.703 28.5772 220.994 36.9421C219.99 29.4942 208.674 28.3983 204.345 34.7726C198.631 43.1822 203.742 52.3299 211.219 51.5918C199.211 70.6028 190.24 91.2913 184.348 112.517C189.905 113.501 208.161 116.185 211.821 116.453V116.475Z" fill="#FFA99A"/>
<path d="M376.061 253.735C390.344 228.216 398.423 205.447 398.423 205.447L376.061 253.735Z" stroke="#FFA99A" stroke-width="0.171421" stroke-miterlimit="10"/>
<path d="M223.227 39.2456C224.655 36.4946 207.18 27.4811 207.961 21.9791C208.742 16.4995 216.576 -2.33266 234.564 6.30059C261.39 19.161 267.818 -7.4321 281.923 2.11816C289.868 7.50835 298.572 32.3569 278.798 35.7118C258.065 39.2456 262.729 23.4329 254.539 19.6307C240.724 13.1893 228.471 14.8891 226.753 16.1192C235.747 29.0691 223.227 39.268 223.227 39.268V39.2456Z" fill="#252525"/>
<path d="M201.309 135.33C201.309 135.33 176.446 148.28 176.29 162.773C176.111 177.266 200.527 258.074 269.803 243.559C339.078 229.043 384.071 141.995 379.384 141.995C374.697 141.995 354.745 158.456 354.745 158.456C354.745 158.456 346.13 146.289 344.568 149.823C343.006 153.357 350.438 165.502 350.438 165.502L265.897 192.005L201.331 135.308L201.309 135.33Z" fill="#FFA99A" stroke="#FFA99A" stroke-width="0.171421" stroke-miterlimit="10"/>
<path d="M377.622 91.917C378.738 92.4761 395.298 124.527 395.298 124.527L367.244 181.604L341.154 162.772L376.394 94.3325L377.644 91.917H377.622Z" fill="#252525"/>
<path d="M388.826 120.389L374.253 91.917L351.801 136.761L361.331 145.618L388.826 120.389Z" fill="#DBDBDB"/>
<path d="M256.166 41.8178C256.166 42.6677 255.474 43.3386 254.648 43.3386C253.823 43.3386 253.131 42.6453 253.131 41.8178C253.131 40.9902 253.823 40.2969 254.648 40.2969C255.474 40.2969 256.166 40.9902 256.166 41.8178Z" fill="#252525"/>
<path d="M363.584 175.991L321.492 162.773L352.648 105.695L365.392 109.632L367.088 107.417L388.826 120.39L363.584 175.991Z" fill="#FAFAFA"/>
<path d="M395.297 124.527L357.691 109.631L323.188 168.118L367.221 181.604L395.297 124.527Z" fill="#252525"/>
<path d="M241.838 282.766C242.106 282.498 252.796 279.881 253.31 278.852C253.578 278.584 254.359 279.121 254.872 278.852C256.434 277.555 258.264 277.287 259.559 275.721C259.827 275.453 260.608 275.99 261.121 275.721C264 273.373 267.125 271.539 268.687 268.407C269.981 266.059 270.785 266.059 272.079 265.276C272.347 265.276 271.811 264.225 272.079 263.957C272.347 263.688 273.374 264.225 273.641 263.957C273.909 263.174 273.374 262.391 273.641 261.608H274.423V260.825C274.936 260.557 275.717 260.311 275.717 260.043C275.985 257.694 277.011 258.209 277.279 257.694C278.842 255.346 280.404 253.243 281.966 250.895C287.188 242.262 290.313 233.114 293.705 223.966C294.241 222.401 294.241 220.835 294.754 219.27C295.022 218.487 294.754 217.704 294.754 216.921C295.022 216.138 295.535 215.355 295.535 214.573C295.312 207.952 296.16 201.332 295.468 194.712C282.479 198.939 272.95 200.348 269.669 196.501C259.246 184.312 237.129 161.275 229.072 118.757C228.782 118.578 228.492 118.354 228.224 118.086C227.956 117.818 189.86 113.568 184.325 112.584C166.225 177.848 177.451 248.01 220.547 288.939C220.77 288.738 220.971 288.514 221.172 288.313C221.685 288.313 240.745 284.399 241.794 282.834L241.838 282.766Z" fill="#FAFAFA"/>
<g style="mix-blend-mode:multiply" opacity="0.35">
<path d="M294.8 219.224C295.046 218.486 294.845 217.77 294.8 217.032C283.016 216.831 271.277 215.846 260.386 210.792C253.512 207.616 247.129 203.053 241.371 198.177C235.725 193.391 230.48 188.157 224.655 183.55C224.476 183.416 224.32 183.282 224.141 183.147C224.075 183.103 224.008 183.036 223.874 182.946C223.517 182.678 223.159 182.409 222.78 182.141C222.044 181.604 221.307 181.09 220.548 180.575C219.321 179.748 218.16 178.786 216.955 177.891C214.255 175.879 211.487 173.933 208.675 172.099C205.684 170.175 202.605 168.364 199.391 166.776C198.498 166.328 197.605 165.903 196.69 165.501C196.601 165.456 196.065 165.232 195.931 165.188C195.664 165.076 195.396 164.964 195.15 164.875C193.61 164.293 192.026 163.734 190.419 163.309C189.504 163.063 188.589 162.839 187.674 162.66C187.294 162.593 186.893 162.504 186.491 162.437C186.357 162.414 185.844 162.347 185.71 162.325C184.438 162.191 183.166 162.146 181.893 162.191C181.246 162.213 180.577 162.258 179.929 162.325C179.863 162.325 179.773 162.325 179.662 162.347C179.572 162.347 179.483 162.37 179.394 162.392C178.412 162.571 177.43 162.772 176.47 163.063C176.403 163.085 176.336 163.108 176.247 163.13C175.399 182.298 177.117 201.13 181.469 218.776C184.014 221.46 186.87 223.764 189.816 226.068C190.062 226.269 190.307 226.448 190.553 226.649C190.151 226.336 190.173 226.358 190.642 226.716C190.999 226.985 191.356 227.275 191.713 227.544C192.428 228.081 193.164 228.617 193.878 229.154C195.307 230.183 196.735 231.212 198.163 232.196C201.065 234.164 203.988 236.043 207.024 237.787C209.88 239.42 212.804 240.963 215.795 242.35C216.509 242.663 217.201 242.999 217.915 243.289C218.093 243.379 218.383 243.468 218.45 243.513C218.807 243.647 219.142 243.804 219.499 243.938C220.883 244.475 222.289 244.989 223.695 245.459C226.574 246.421 229.498 247.226 232.466 247.852C233.984 248.165 235.524 248.456 237.064 248.68C237.086 248.68 237.108 248.68 237.131 248.68C237.488 248.724 237.845 248.769 238.202 248.814C238.916 248.881 239.63 248.948 240.344 249.015C243.335 249.239 246.326 249.306 249.339 249.172C250.923 249.105 252.508 248.993 254.07 248.814C254.427 248.769 254.806 248.724 255.186 248.68C255.275 248.68 255.543 248.635 255.722 248.613C256.324 248.523 256.927 248.434 257.552 248.322C264.091 247.204 270.474 245.325 276.634 242.887C277.147 242.686 277.682 242.462 278.218 242.238C278.307 242.216 278.888 241.948 278.999 241.903C279.669 241.612 280.338 241.321 281.008 241.008C282.637 240.27 284.266 239.487 285.851 238.704C286.788 238.235 287.703 237.765 288.618 237.273C290.426 232.867 292.033 228.394 293.684 223.898C294.22 222.333 294.22 220.767 294.733 219.201L294.8 219.224Z" fill="#FAFAFA"/>
</g>
<mask id="mask0_2206_858" style="mask-type:luminance" maskUnits="userSpaceOnUse" x="176" y="112" width="120" height="177">
<path d="M241.838 282.767C242.106 282.499 252.796 279.882 253.31 278.853C253.578 278.585 254.359 279.122 254.872 278.853C256.434 277.556 258.264 277.288 259.559 275.722C259.827 275.454 260.608 275.991 261.121 275.722C264 273.374 267.125 271.54 268.687 268.408C269.981 266.06 270.785 266.06 272.079 265.277C272.347 265.277 271.811 264.226 272.079 263.958C272.347 263.689 273.374 264.226 273.641 263.958C273.909 263.175 273.374 262.392 273.641 261.609H274.423V260.826C274.936 260.558 275.717 260.312 275.717 260.044C275.985 257.695 277.011 258.21 277.279 257.695C278.842 255.347 280.404 253.244 281.966 250.896C287.188 242.263 290.313 233.115 293.705 223.967C294.241 222.402 294.241 220.836 294.754 219.27C295.022 218.488 294.754 217.705 294.754 216.922C295.022 216.139 295.535 215.356 295.535 214.574C295.312 207.953 296.16 201.333 295.468 194.713C282.479 198.94 272.95 200.349 269.669 196.502C259.246 184.313 237.129 161.276 229.072 118.758C228.782 118.579 228.492 118.355 228.224 118.087C227.956 117.819 189.86 113.569 184.325 112.585C166.225 177.849 177.451 248.011 220.547 288.94C220.77 288.739 220.971 288.515 221.172 288.314C221.685 288.314 240.745 284.4 241.794 282.834L241.838 282.767Z" fill="white"/>
</mask>
<g mask="url(#mask0_2206_858)">
<path d="M163.211 120.392H253.108" stroke="#2B5877" stroke-width="1.3428" stroke-miterlimit="10"/>
<path d="M163.301 132.157L253.019 126.297" stroke="#2B5877" stroke-width="1.3428" stroke-miterlimit="10"/>
<path d="M163.812 148.237L252.504 133.431" stroke="#2B5877" stroke-width="1.3428" stroke-miterlimit="10"/>
<path d="M163.814 160.427L252.506 145.621" stroke="#2B5877" stroke-width="1.3428" stroke-miterlimit="10"/>
<path d="M163.812 172.616L252.504 157.81" stroke="#2B5877" stroke-width="1.3428" stroke-miterlimit="10"/>
<path d="M165.107 190.374L251.21 164.407" stroke="#2B5877" stroke-width="1.3428" stroke-miterlimit="10"/>
<path d="M165.107 206.634L262.615 172.615" stroke="#2B5877" stroke-width="1.3428" stroke-miterlimit="10"/>
<path d="M168.635 222.47L266.12 188.451" stroke="#2B5877" stroke-width="1.3428" stroke-miterlimit="10"/>
<path d="M170.42 243.942L264.334 200.977" stroke="#2B5877" stroke-width="1.3428" stroke-miterlimit="10"/>
<path d="M186.242 262.258L276.407 211.867" stroke="#2B5877" stroke-width="1.3428" stroke-miterlimit="10"/>
<path d="M201.553 280.465L289.977 227.033" stroke="#2B5877" stroke-width="1.3428" stroke-miterlimit="10"/>
</g>
<path d="M375.456 266.305L344.523 332.978H397.373L365.279 320.43L394.627 266.305H375.456Z" fill="#FFA99A"/>
<path d="M432.68 145.149C374.519 134.033 344.524 222.446 293.75 223.922C294.442 230.542 221.752 288.246 221.217 288.246C221.016 288.47 220.793 288.671 220.592 288.873C239.942 307.235 265.719 319.715 298.147 323.204C331.178 321.214 358.383 285.361 376.059 253.736L398.422 205.448C398.422 205.448 390.32 228.216 376.059 253.736L369.252 268.452L418.106 274.133C418.106 274.133 471.022 152.463 432.68 145.149Z" fill="#4B7FA3"/>
<path d="M379.363 141.995C374.676 141.995 354.724 158.456 354.724 158.456C354.724 158.456 346.109 146.289 344.547 149.823C342.984 153.357 350.416 165.502 350.416 165.502L265.875 192.005L245.611 174.202C244.606 175.79 225.524 229.222 221.105 236.514C234.028 244.096 250.097 247.674 269.803 243.559C339.079 229.043 384.072 141.995 379.385 141.995H379.363Z" fill="#FFA99A"/>
<path d="M201.355 134.839L201.109 134.951C201.109 134.951 194.793 138.261 188.589 143.271C180.22 150.048 175.935 156.601 175.868 162.729C175.845 165.614 176.738 170.58 178.278 176.059C179.595 180.756 182.027 188.114 186.112 196.524C192.271 209.206 203.296 226.494 220.905 236.827L221.24 237.029L221.441 236.693C225.815 229.491 228.873 222.469 232.131 215.043L232.288 214.64C234.252 210.123 235.792 205.515 237.287 201.087C237.778 199.611 238.291 198.09 238.827 196.569C239.228 195.361 239.429 194.153 239.608 192.99C239.786 191.85 239.987 190.687 240.367 189.546L242.71 184.066C242.978 183.216 243.067 182.389 243.112 181.584C243.179 180.801 243.246 180.063 243.491 179.325C244.027 177.737 244.786 176.171 245.902 174.404L246.08 174.113L201.332 134.816L201.355 134.839Z" fill="#FAFAFA"/>
<mask id="mask1_2206_858" style="mask-type:luminance" maskUnits="userSpaceOnUse" x="175" y="134" width="72" height="104">
<path d="M201.355 134.838L201.109 134.95C201.109 134.95 194.793 138.26 188.589 143.27C180.22 150.047 175.935 156.6 175.868 162.728C175.845 165.613 176.738 170.579 178.278 176.058C179.595 180.755 182.027 188.113 186.112 196.523C192.271 209.205 203.296 226.493 220.905 236.826L221.24 237.028L221.441 236.692C225.815 229.49 228.873 222.468 232.131 215.042L232.288 214.639C234.252 210.122 235.792 205.514 237.287 201.086C237.778 199.61 238.291 198.089 238.827 196.568C239.228 195.36 239.429 194.152 239.608 192.989C239.786 191.849 239.987 190.686 240.367 189.545L242.71 184.065C242.978 183.215 243.067 182.388 243.112 181.583C243.179 180.8 243.246 180.062 243.491 179.324C244.027 177.736 244.786 176.17 245.902 174.403L246.08 174.112L201.332 134.815L201.355 134.838Z" fill="white"/>
</mask>
<g mask="url(#mask1_2206_858)">
<path d="M154.643 148.013L243.089 131.843" stroke="#2B5877" stroke-width="1.3428" stroke-miterlimit="10"/>
<path d="M156.852 159.577L244.048 137.681" stroke="#2B5877" stroke-width="1.3428" stroke-miterlimit="10"/>
<path d="M160.223 175.299L244.83 144.792" stroke="#2B5877" stroke-width="1.3428" stroke-miterlimit="10"/>
<path d="M162.41 187.287L247.018 156.78" stroke="#2B5877" stroke-width="1.3428" stroke-miterlimit="10"/>
<path d="M164.596 199.276L249.203 168.769" stroke="#2B5877" stroke-width="1.3428" stroke-miterlimit="10"/>
<path d="M169.061 216.52L249.093 175.501" stroke="#2B5877" stroke-width="1.3428" stroke-miterlimit="10"/>
<path d="M171.961 232.511L261.791 181.517" stroke="#2B5877" stroke-width="1.3428" stroke-miterlimit="10"/>
<path d="M178.232 247.451L268.085 196.479" stroke="#2B5877" stroke-width="1.3428" stroke-miterlimit="10"/>
<path d="M183.857 268.274L268.554 209.116" stroke="#2B5877" stroke-width="1.3428" stroke-miterlimit="10"/>
<path d="M202.693 283.439L282.369 217.639" stroke="#2B5877" stroke-width="1.3428" stroke-miterlimit="10"/>
<path d="M221.039 298.603L298.438 230.141" stroke="#2B5877" stroke-width="1.3428" stroke-miterlimit="10"/>
</g>
</svg>
