<svg width="61" height="61" viewBox="0 0 61 61" fill="none" xmlns="http://www.w3.org/2000/svg">
<path d="M7.24089 60.75C5.40755 60.75 3.83811 60.0972 2.53255 58.7917C1.227 57.4861 0.574219 55.9167 0.574219 54.0833V7.41667C0.574219 5.58333 1.227 4.01389 2.53255 2.70833C3.83811 1.40278 5.40755 0.75 7.24089 0.75H33.9076V7.41667H7.24089V54.0833H53.9076V27.4167H60.5742V54.0833C60.5742 55.9167 59.9214 57.4861 58.6159 58.7917C57.3103 60.0972 55.7409 60.75 53.9076 60.75H7.24089ZM10.5742 47.4167H50.5742L38.0742 30.75L28.0742 44.0833L20.5742 34.0833L10.5742 47.4167ZM47.2409 20.75V14.0833H40.5742V7.41667H47.2409V0.75H53.9076V7.41667H60.5742V14.0833H53.9076V20.75H47.2409Z" fill="black"/>
</svg>
