<svg width="61" height="61" viewBox="0 0 61 61" fill="none" xmlns="http://www.w3.org/2000/svg">
<path d="M19.4742 45.3503L30.5742 34.2503L41.6742 45.3503L45.1745 41.85L34.0745 30.75L45.1745 19.65L41.6742 16.1498L30.5742 27.2498L19.4742 16.1498L15.974 19.65L27.074 30.75L15.974 41.85L19.4742 45.3503ZM30.5742 60.75C26.4577 60.75 22.5745 59.9625 18.9245 58.3875C15.2745 56.8125 12.091 54.6668 9.37397 51.9503C6.65747 49.2332 4.51172 46.0497 2.93672 42.3997C1.36172 38.7497 0.574219 34.8665 0.574219 30.75C0.574219 26.6 1.36172 22.7 2.93672 19.05C4.51172 15.4 6.65747 12.225 9.37397 9.525C12.091 6.825 15.2745 4.6875 18.9245 3.1125C22.5745 1.5375 26.4577 0.75 30.5742 0.75C34.7242 0.75 38.6242 1.5375 42.2742 3.1125C45.9242 4.6875 49.0992 6.825 51.7992 9.525C54.4992 12.225 56.6367 15.4 58.2117 19.05C59.7867 22.7 60.5742 26.6 60.5742 30.75C60.5742 34.8665 59.7867 38.7497 58.2117 42.3997C56.6367 46.0497 54.4992 49.2332 51.7992 51.9503C49.0992 54.6668 45.9242 56.8125 42.2742 58.3875C38.6242 59.9625 34.7242 60.75 30.5742 60.75Z" fill="black"/>
</svg>
