<svg width="24" height="24" viewBox="0 0 24 24" fill="none" xmlns="http://www.w3.org/2000/svg">
<g clip-path="url(#clip0_2242_1944)">
<path d="M5.74612 23C5.26596 23 4.85486 22.8291 4.51281 22.4872C4.17094 22.1451 4 21.734 4 21.2539V10.1842C4 9.70405 4.17094 9.29295 4.51281 8.95091C4.85486 8.60903 5.26596 8.4381 5.74612 8.4381H7.31755V6.06341C7.31755 4.66256 7.81141 3.46845 8.79914 2.48107C9.78687 1.49369 10.9814 1 12.3828 1C13.7842 1 14.9781 1.49369 15.9646 2.48107C16.9511 3.46845 17.4444 4.66256 17.4444 6.06341V8.4381H19.0158C19.4959 8.4381 19.907 8.60903 20.2491 8.95091C20.591 9.29295 20.7619 9.70405 20.7619 10.1842V21.2539C20.7619 21.734 20.591 22.1451 20.2491 22.4872C19.907 22.8291 19.4959 23 19.0158 23H5.74612ZM5.74612 21.2539H19.0158V10.1842H5.74612V21.2539ZM12.3838 17.7619C12.9464 17.7619 13.4271 17.5653 13.8259 17.1721C14.2245 16.7789 14.4238 16.3061 14.4238 15.7539C14.4238 15.2126 14.2235 14.7311 13.8227 14.3092C13.4222 13.8872 12.9406 13.6762 12.3781 13.6762C11.8155 13.6762 11.3348 13.8872 10.936 14.3092C10.5374 14.7311 10.3381 15.2156 10.3381 15.7628C10.3381 16.3098 10.5385 16.7798 10.9392 17.1726C11.3397 17.5655 11.8213 17.7619 12.3838 17.7619ZM9.06341 8.4381H15.6985V6.06341C15.6985 5.14202 15.3762 4.35875 14.7315 3.71359C14.0867 3.06861 13.3039 2.74612 12.383 2.74612C11.462 2.74612 10.6785 3.06861 10.0325 3.71359C9.38642 4.35875 9.06341 5.14202 9.06341 6.06341V8.4381Z" fill="#918F8F"/>
</g>
<defs>
<clipPath id="clip0_2242_1944">
<rect width="24" height="24" fill="white"/>
</clipPath>
</defs>
</svg>
