<svg width="60" height="61" viewBox="0 0 60 61" fill="none" xmlns="http://www.w3.org/2000/svg">
<path d="M6.38029 60.75C4.59735 60.75 3.08824 60.1324 1.85294 58.8971C0.617647 57.6618 0 56.1526 0 54.3697V7.13029C0 5.34735 0.617647 3.83824 1.85294 2.60294C3.08824 1.36765 4.59735 0.75 6.38029 0.75H30.0335V6.04412H6.38029C6.10853 6.04412 5.85971 6.15735 5.63382 6.38382C5.40735 6.6097 5.29412 6.85853 5.29412 7.13029V54.3697C5.29412 54.6415 5.40735 54.8903 5.63382 55.1162C5.85971 55.3426 6.10853 55.4559 6.38029 55.4559H30.0335V60.75H6.38029ZM44.9321 45.8179L41.2668 41.9894L49.86 33.3971H19.7515V28.1029H49.86L41.2668 19.5106L44.9321 15.6821L60 30.75L44.9321 45.8179Z" fill="black"/>
</svg>
