<svg width="61" height="61" viewBox="0 0 61 61" fill="none" xmlns="http://www.w3.org/2000/svg">
<path d="M56.8966 60.7509L34.9768 38.8302C33.2318 40.271 31.2251 41.3986 28.9566 42.2129C26.6881 43.0272 24.3414 43.4344 21.9164 43.4344C15.9514 43.4344 10.9031 41.3692 6.77158 37.2388C2.64 33.1084 0.574219 28.0612 0.574219 22.0974C0.574219 16.1342 2.63942 11.0853 6.76983 6.95085C10.9002 2.81695 15.9474 0.75 21.9112 0.75C27.8744 0.75 32.9233 2.81578 37.0578 6.94736C41.1917 11.0789 43.2586 16.1272 43.2586 22.0922C43.2586 24.5846 42.8404 26.9651 42.0039 29.2336C41.1669 31.5021 40.0504 33.4751 38.6544 35.1526L60.5742 57.0724L56.8966 60.7509ZM21.9164 38.2003C26.4133 38.2003 30.222 36.6397 33.3427 33.5184C36.4639 30.3978 38.0245 26.5891 38.0245 22.0922C38.0245 17.5953 36.4639 13.7866 33.3427 10.6659C30.222 7.54473 26.4133 5.98412 21.9164 5.98412C17.4195 5.98412 13.6108 7.54473 10.4902 10.6659C7.36895 13.7866 5.80834 17.5953 5.80834 22.0922C5.80834 26.5891 7.36895 30.3978 10.4902 33.5184C13.6108 36.6397 17.4195 38.2003 21.9164 38.2003Z" fill="#2B5877"/>
</svg>
