<svg width="60" height="61" viewBox="0 0 60 61" fill="none" xmlns="http://www.w3.org/2000/svg">
<path d="M5.29412 55.4559H9.74647L45.8753 19.3271L41.4229 14.8747L5.29412 51.0035V55.4559ZM0 60.75V48.8047L46.5547 2.27029C47.0882 1.78559 47.6774 1.41118 48.3221 1.14706C48.9674 0.882353 49.6438 0.75 50.3515 0.75C51.0591 0.75 51.7444 0.87559 52.4074 1.12677C53.0709 1.37794 53.6582 1.77735 54.1694 2.325L58.4797 6.68912C59.0274 7.20029 59.4176 7.78853 59.6506 8.45382C59.8835 9.11912 60 9.78441 60 10.4497C60 11.1597 59.8788 11.8371 59.6365 12.4818C59.3941 13.1271 59.0085 13.7165 58.4797 14.25L11.9453 60.75H0ZM43.6103 17.1397L41.4229 14.8747L45.8753 19.3271L43.6103 17.1397Z" fill="white"/>
</svg>
