<svg width="24" height="24" viewBox="0 0 24 24" fill="none" xmlns="http://www.w3.org/2000/svg">
<g clip-path="url(#clip0_2242_1941)">
<path d="M12 11.5831C10.625 11.5831 9.4826 11.1283 8.57281 10.2188C7.66323 9.30896 7.20844 8.16656 7.20844 6.79156C7.20844 5.41656 7.66323 4.27417 8.57281 3.36438C9.4826 2.45479 10.625 2 12 2C13.375 2 14.5174 2.45479 15.4272 3.36438C16.3368 4.27417 16.7916 5.41656 16.7916 6.79156C16.7916 8.16656 16.3368 9.30896 15.4272 10.2188C14.5174 11.1283 13.375 11.5831 12 11.5831ZM2 21.6041V18.4791C2 17.7151 2.19271 17.0467 2.57812 16.4738C2.96354 15.9008 3.46531 15.4651 4.08344 15.1666C5.44448 14.5347 6.77427 14.0607 8.07281 13.7447C9.37156 13.4286 10.6806 13.2706 12 13.2706C13.3194 13.2706 14.6249 13.4321 15.9166 13.755C17.2082 14.0779 18.5341 14.5498 19.8941 15.1706C20.5303 15.471 21.0403 15.9066 21.4241 16.4772C21.808 17.0478 22 17.7151 22 18.4791V21.6041H2ZM4.08344 19.5206H19.9166V18.4791C19.9166 18.1805 19.8316 17.8993 19.6616 17.6353C19.4914 17.3714 19.2778 17.1734 19.0209 17.0416C17.757 16.4234 16.5659 15.9877 15.4478 15.7344C14.3299 15.4808 13.1806 15.3541 12 15.3541C10.8194 15.3541 9.66313 15.4808 8.53125 15.7344C7.39937 15.9877 6.20844 16.4234 4.95844 17.0416C4.70135 17.1734 4.49125 17.3714 4.32812 17.6353C4.165 17.8993 4.08344 18.1805 4.08344 18.4791V19.5206ZM12 9.5C12.7708 9.5 13.4149 9.24125 13.9322 8.72375C14.4497 8.20646 14.7084 7.5624 14.7084 6.79156C14.7084 6.02073 14.4497 5.37667 13.9322 4.85938C13.4149 4.34188 12.7708 4.08313 12 4.08313C11.2292 4.08313 10.5851 4.34188 10.0678 4.85938C9.55031 5.37667 9.29156 6.02073 9.29156 6.79156C9.29156 7.5624 9.55031 8.20646 10.0678 8.72375C10.5851 9.24125 11.2292 9.5 12 9.5Z" fill="#918F8F"/>
</g>
<defs>
<clipPath id="clip0_2242_1941">
<rect width="24" height="24" fill="white"/>
</clipPath>
</defs>
</svg>
