<svg width="27" height="38" viewBox="0 0 27 38" fill="none" xmlns="http://www.w3.org/2000/svg">
<g clip-path="url(#clip0_405_1927)">
<path d="M1.5 6.64011V28.4501C1.5 30.4401 2.77 32.2001 4.66 32.8301L12.61 36.2601C14.21 36.7901 16.02 36.4101 17.33 35.3501C18.64 34.2901 19.5 32.9301 19.82 31.3601C20.5 28.0201 18.46 24.3701 14.82 22.9901C15.28 22.7601 18.18 21.2401 18.8 18.2101C19.48 14.8701 17.11 10.9801 12.87 9.53011L3.39 5.32011C2.47 4.98011 1.5 5.66011 1.5 6.64011Z" stroke="#FAFAFA" stroke-width="3" stroke-linecap="round" stroke-linejoin="round"/>
<path d="M12.3203 16.4799L7.21191 14.2148" stroke="#FAFAFA" stroke-width="3.29" stroke-linecap="round" stroke-linejoin="round"/>
<path d="M3.13965 5.21L15.4596 1.5C20.0396 4.43 25.4596 5.63 25.4596 10.6V31.36L16.5896 35.86L16.4096 35.96C16.7396 35.79 17.0596 35.59 17.3496 35.36C18.6196 34.33 19.5196 32.94 19.8396 31.37C20.5196 28.03 18.4796 24.38 14.8396 23C15.2996 22.77 18.1996 21.25 18.8196 18.22C19.4996 14.88 17.1296 10.99 12.8896 9.54L3.40965 5.33L3.13965 5.2V5.21Z" fill="#FAFAFA" stroke="#FAFAFA" stroke-width="3" stroke-linecap="round" stroke-linejoin="round"/>
</g>
<defs>
<clipPath id="clip0_405_1927">
<rect width="26.96" height="38" fill="white"/>
</clipPath>
</defs>
</svg>