<svg width="283" height="314" viewBox="0 0 283 314" fill="none" xmlns="http://www.w3.org/2000/svg">
<g clip-path="url(#clip0_2206_918)">
<path d="M122.118 238.134L127.089 302.28L105.84 312.259L150.559 310.076L131.467 302.28L126.776 238.134H122.118Z" fill="#4E4D4D"/>
<path d="M50.3066 210.311C48.3974 206.552 38.4067 201.202 39.6411 208.965C40.1513 208.883 45.0562 219.766 40.5299 225.445C38.3738 228.137 35.6909 230.418 33.9627 233.455C33.5841 234.128 32.037 240.923 32.2674 240.792C35.6415 238.839 37.0076 234.817 39.098 231.764C38.2585 235.326 36.2834 240.628 39.674 243.582C40.2172 244.058 45.731 234.062 46.1589 233.209C46.1096 233.652 45.4676 246.668 47.5909 244.978C52.8907 240.792 52.792 215.186 50.3066 210.295V210.311Z" fill="#FFA99A"/>
<path d="M256.291 257.041C251.156 252.856 245.214 249.934 238.993 247.702C241.05 243.122 242.021 238.198 243.256 233.356C244.457 233.651 245.642 233.979 246.827 234.275C246.926 234.291 246.959 234.16 246.877 234.127C245.675 233.832 244.49 233.503 243.305 233.208C243.371 232.929 243.453 232.65 243.519 232.371C243.519 232.387 243.552 232.404 243.568 232.404C243.667 232.404 243.667 232.256 243.568 232.256C243.568 232.256 243.568 232.256 243.552 232.256C243.585 232.125 243.618 232.01 243.651 231.878C243.684 231.78 243.519 231.747 243.502 231.846C243.387 232.289 243.272 232.732 243.157 233.175C242.136 232.929 241.099 232.716 240.063 232.568C238.96 232.42 237.857 232.354 236.754 232.453C236.26 232.486 235.767 232.568 235.273 232.683C235.075 232.732 235.108 232.716 235.042 232.912C234.927 233.257 234.829 233.602 234.713 233.947C233.199 238.871 231.849 243.844 230.434 248.801C229.825 250.935 229.183 253.069 228.525 255.186C228.508 255.252 228.558 255.285 228.623 255.285C233.15 254.579 237.758 254.382 242.317 254.628C246.86 254.891 251.386 255.613 255.732 256.992C255.896 257.041 256.061 257.107 256.225 257.156C256.291 257.189 256.357 257.074 256.308 257.025L256.291 257.041Z" fill="#4E4D4D"/>
<path d="M180.498 313.998C182.177 311.7 183.428 309.074 184.58 306.464C186.028 303.182 187.246 299.8 188.267 296.353C189.106 293.481 189.913 290.494 190.16 287.473C194.06 287.293 197.961 286.882 201.763 287.966C198.866 293.268 196.167 298.684 193.83 304.248C193.83 304.281 193.846 304.314 193.879 304.347C197.961 307.367 206.026 310.88 210.849 313.966C201.319 313.966 181.173 313.834 180.498 313.966V313.998Z" fill="#4E4D4D"/>
<path d="M67.7373 108.479C58.0593 111.631 14.6731 251.478 139.927 240.202C225.218 232.52 191.559 182.047 191.559 182.047C191.559 182.047 77.4153 105.344 67.7373 108.479Z" fill="#EC6B53"/>
<g style="mix-blend-mode:multiply" opacity="0.25">
<path d="M71.6544 148.563C71.9342 151.747 72.2798 154.931 72.6913 158.099C72.6913 158.198 72.7242 158.313 72.7242 158.362C72.7572 158.559 72.7736 158.74 72.8065 158.936C72.8559 159.314 72.9218 159.692 72.9711 160.069C73.0863 160.824 73.2016 161.596 73.3168 162.351C73.5801 163.926 73.8435 165.486 74.1562 167.045C75.3577 173.135 76.9378 179.159 79.1598 184.969C79.4396 185.708 79.7358 186.43 80.0321 187.169C80.0321 187.169 80.0321 187.185 80.0321 187.201C80.0979 187.333 80.1473 187.48 80.2132 187.628C80.3613 187.956 80.5094 188.285 80.6575 188.613C81.283 189.975 81.9249 191.321 82.6326 192.651C84.0317 195.277 85.5788 197.805 87.3235 200.218C87.5704 200.546 87.8173 200.891 88.0642 201.219C88.13 201.301 88.1958 201.4 88.2617 201.482C88.2946 201.531 88.3275 201.58 88.3604 201.613C88.8048 202.171 89.2492 202.729 89.7101 203.271C90.6812 204.403 91.6852 205.503 92.755 206.554C93.8249 207.62 94.9441 208.655 96.0962 209.623C96.4254 209.902 96.7546 210.165 97.0838 210.444C97.199 210.526 97.6434 210.887 97.7421 210.969C98.2524 211.363 98.7626 211.74 99.2893 212.101C101.939 213.956 104.737 215.581 107.651 216.96C108.424 217.338 109.214 217.682 110.004 218.027C110.054 218.043 110.086 218.06 110.119 218.076C110.317 218.158 110.498 218.24 110.695 218.306C111.09 218.454 111.469 218.618 111.864 218.766C113.543 219.406 115.255 219.98 116.966 220.473C120.11 221.392 123.303 222.147 126.529 222.656C126.858 222.705 127.204 222.754 127.533 222.803C127.648 222.803 127.764 222.836 127.879 222.853C128.455 222.918 129.031 223 129.607 223.05C130.957 223.197 132.29 223.296 133.64 223.378C139.713 223.723 145.803 223.509 151.843 222.869C152.683 222.787 153.506 222.689 154.345 222.574C154.51 222.557 154.674 222.524 154.855 222.508C154.872 222.508 154.888 222.508 154.905 222.508C155.283 222.459 155.678 222.393 156.057 222.344C157.67 222.098 159.283 221.835 160.879 221.523C164.056 220.916 167.216 220.161 170.31 219.258C171.825 218.815 173.339 218.322 174.82 217.797C175.577 217.535 176.335 217.239 177.092 216.944C177.437 216.812 177.783 216.665 178.112 216.533C178.112 216.533 178.145 216.517 178.178 216.5C178.31 216.435 178.458 216.386 178.589 216.32C181.272 215.138 183.906 213.792 186.375 212.2C186.984 211.806 187.593 211.396 188.185 210.969C188.432 210.788 188.679 210.608 188.926 210.427C189.041 210.329 189.173 210.23 189.288 210.132C190.325 209.295 191.312 208.408 192.25 207.44C192.711 206.947 193.172 206.455 193.6 205.946C193.715 205.798 193.847 205.651 193.962 205.503C194.061 205.372 194.291 205.076 194.357 204.978C195.098 203.944 195.74 202.877 196.316 201.761C196.645 201.104 197.238 200.677 197.896 200.464C196.925 190.222 191.493 182.064 191.493 182.064C191.493 182.064 111.699 128.439 79.884 112.698C78.9623 117.376 77.0365 121.939 74.9133 126.207C73.5637 128.899 72.1153 131.542 70.6504 134.184C70.8808 138.993 71.1771 143.803 71.605 148.596L71.6544 148.563Z" fill="#AE7E4A"/>
<path d="M71.6544 148.563C71.9342 151.747 72.2798 154.931 72.6913 158.099C72.6913 158.198 72.7242 158.313 72.7242 158.362C72.7572 158.559 72.7736 158.74 72.8065 158.936C72.8559 159.314 72.9218 159.692 72.9711 160.069C73.0863 160.824 73.2016 161.596 73.3168 162.351C73.5801 163.926 73.8435 165.486 74.1562 167.045C75.3577 173.135 76.9378 179.159 79.1598 184.969C79.4396 185.708 79.7358 186.43 80.0321 187.169C80.0321 187.169 80.0321 187.185 80.0321 187.201C80.0979 187.333 80.1473 187.48 80.2132 187.628C80.3613 187.956 80.5094 188.285 80.6575 188.613C81.283 189.975 81.9249 191.321 82.6326 192.651C84.0317 195.277 85.5788 197.805 87.3235 200.218C87.5704 200.546 87.8173 200.891 88.0642 201.219C88.13 201.301 88.1958 201.4 88.2617 201.482C88.2946 201.531 88.3275 201.58 88.3604 201.613C88.8048 202.171 89.2492 202.729 89.7101 203.271C90.6812 204.403 91.6852 205.503 92.755 206.554C93.8249 207.62 94.9441 208.655 96.0962 209.623C96.4254 209.902 96.7546 210.165 97.0838 210.444C97.199 210.526 97.6434 210.887 97.7421 210.969C98.2524 211.363 98.7626 211.74 99.2893 212.101C101.939 213.956 104.737 215.581 107.651 216.96C108.424 217.338 109.214 217.682 110.004 218.027C110.054 218.043 110.086 218.06 110.119 218.076C110.317 218.158 110.498 218.24 110.695 218.306C111.09 218.454 111.469 218.618 111.864 218.766C113.543 219.406 115.255 219.98 116.966 220.473C120.11 221.392 123.303 222.147 126.529 222.656C126.858 222.705 127.204 222.754 127.533 222.803C127.648 222.803 127.764 222.836 127.879 222.853C128.455 222.918 129.031 223 129.607 223.05C130.957 223.197 132.29 223.296 133.64 223.378C139.713 223.723 145.803 223.509 151.843 222.869C152.683 222.787 153.506 222.689 154.345 222.574C154.51 222.557 154.674 222.524 154.855 222.508C154.872 222.508 154.888 222.508 154.905 222.508C155.283 222.459 155.678 222.393 156.057 222.344C157.67 222.098 159.283 221.835 160.879 221.523C164.056 220.916 167.216 220.161 170.31 219.258C171.825 218.815 173.339 218.322 174.82 217.797C175.577 217.535 176.335 217.239 177.092 216.944C177.437 216.812 177.783 216.665 178.112 216.533C178.112 216.533 178.145 216.517 178.178 216.5C178.31 216.435 178.458 216.386 178.589 216.32C181.272 215.138 183.906 213.792 186.375 212.2C186.984 211.806 187.593 211.396 188.185 210.969C188.432 210.788 188.679 210.608 188.926 210.427C189.041 210.329 189.173 210.23 189.288 210.132C190.325 209.295 191.312 208.408 192.25 207.44C192.711 206.947 193.172 206.455 193.6 205.946C193.715 205.798 193.847 205.651 193.962 205.503C194.061 205.372 194.291 205.076 194.357 204.978C195.098 203.944 195.74 202.877 196.316 201.761C196.645 201.104 197.238 200.677 197.896 200.464C196.925 190.222 191.493 182.064 191.493 182.064C191.493 182.064 111.699 128.439 79.884 112.698C78.9623 117.376 77.0365 121.939 74.9133 126.207C73.5637 128.899 72.1153 131.542 70.6504 134.184C70.8808 138.993 71.1771 143.803 71.605 148.596L71.6544 148.563Z" stroke="#918F8F" stroke-width="0.148212" stroke-miterlimit="10"/>
</g>
<g style="mix-blend-mode:multiply" opacity="0.25">
<path d="M71.3243 108.775C68.0325 107.396 68.7896 108.102 67.7362 108.479C55.721 112.681 46.1254 187.923 58.9964 203.172C47.6396 133.872 71.2914 109.021 71.3243 108.791V108.775Z" fill="#AE7E4A"/>
<path d="M71.3243 108.775C68.0325 107.396 68.7896 108.102 67.7362 108.479C55.721 112.681 46.1254 187.923 58.9964 203.172C47.6396 133.872 71.2914 109.021 71.3243 108.791V108.775Z" stroke="#918F8F" stroke-width="0.148212" stroke-miterlimit="10"/>
</g>
<path d="M96.7869 87.9453V88.8809C97.5605 90.4402 98.6633 89.6523 99.7496 89.0286C103.453 87.1081 106.909 84.9579 110.563 82.8733C110.349 82.4302 110.135 81.9706 109.954 81.511C108.259 77.3911 108.012 72.9429 108.358 68.5275C108.736 63.5869 109.954 58.7612 110.415 53.8369C110.563 52.3104 110.711 50.7183 110.415 49.1918C110.168 47.9443 109.724 46.7297 109.246 45.5643C108.275 43.1186 107.09 40.6565 105.51 38.5391C105.247 38.178 104.605 37.3573 103.996 37.0454C103.864 36.832 103.716 36.6187 103.469 36.5038C103.206 36.3724 102.893 36.4053 102.597 36.4381C102.597 36.4217 102.564 36.4053 102.531 36.4053C102.531 36.4053 102.531 36.4217 102.515 36.4381C102.482 36.4381 102.465 36.4381 102.432 36.4381C102.35 36.4381 102.367 36.553 102.432 36.5858C100.161 40.6073 100.112 45.3509 99.6014 49.8319C99.1077 54.313 97.6593 58.7612 95.8488 62.8811C93.5116 68.1992 90.2033 72.9593 86.2695 77.1777C88.9853 80.3127 91.8821 83.1524 94.532 86.5008C94.9929 87.1246 95.6183 88.2079 96.8692 87.896L96.7869 87.9453Z" fill="#FFA99A"/>
<g style="mix-blend-mode:multiply" opacity="0.25">
<path d="M98.3828 55.6755C98.8766 55.9381 99.3704 56.1843 99.8641 56.4306C100.095 56.5455 100.341 56.6603 100.572 56.7588C100.621 56.7752 100.671 56.7917 100.704 56.8081C100.736 56.8081 100.786 56.8409 100.852 56.8573C101.28 57.0215 101.708 57.1692 102.135 57.3005C104.193 57.9242 106.234 58.5972 108.308 59.2209C108.736 59.3522 109.18 59.4836 109.624 59.5985C109.937 57.6944 110.233 55.774 110.414 53.8536C110.563 52.3271 110.711 50.7349 110.414 49.2084C110.168 47.9609 109.723 46.7463 109.246 45.5809C108.275 43.1352 107.09 40.6731 105.51 38.5557C105.246 38.1946 104.604 37.3739 103.995 37.062C103.864 36.8486 103.716 36.6353 103.469 36.5204C103.205 36.389 102.893 36.4219 102.596 36.4547C102.596 36.4383 102.563 36.4219 102.531 36.4219C102.531 36.4219 102.531 36.4383 102.514 36.4547C102.481 36.4547 102.465 36.4547 102.432 36.4547C102.349 36.4547 102.366 36.5696 102.432 36.6024C100.16 40.6239 100.111 45.3675 99.6008 49.8485C99.3868 51.7854 98.9918 53.7222 98.4651 55.6263L98.3828 55.6755Z" fill="#FFA99A"/>
</g>
<path d="M120.998 94.3301C120.998 94.3301 121.031 94.3137 121.047 94.2973C119.549 93.2961 118.117 92.1963 116.768 90.9817C114.216 88.6837 112.077 85.959 110.579 82.8896C106.942 84.9742 103.469 87.1244 99.7654 89.0448C98.6791 89.6686 97.5763 90.44 96.8027 88.8971C96.8027 88.5852 88.9023 80.3618 86.1866 77.2432C84.7546 78.7861 83.2239 80.2633 81.6439 81.6585C78.9281 84.0386 76.0642 86.2216 73.1016 88.2734C88.6719 108.495 118.66 96.07 121.014 94.3466L120.998 94.3301Z" fill="#FAFAFA"/>
<path d="M40.662 209.819C40.5632 209.819 40.5632 209.968 40.662 209.968C40.7608 209.968 40.7608 209.819 40.662 209.819Z" fill="#918F8F"/>
<path d="M186.406 101.848C186.307 101.848 186.307 102.012 186.406 102.012C186.505 102.012 186.505 101.848 186.406 101.848Z" fill="#918F8F"/>
<path d="M115.172 203.271C115.073 203.271 115.073 203.419 115.172 203.419C115.271 203.419 115.271 203.271 115.172 203.271Z" fill="#4E4D4D"/>
<path d="M185.93 200.939C185.831 200.939 185.831 201.104 185.93 201.104C186.028 201.104 186.028 200.939 185.93 200.939Z" fill="#AE7E4A"/>
<path d="M122.199 240.186C122.1 240.186 122.1 240.35 122.199 240.35C122.298 240.35 122.298 240.186 122.199 240.186Z" fill="#918F8F"/>
<path d="M228.574 234.111C228.475 234.111 228.475 234.26 228.574 234.26C228.673 234.26 228.673 234.111 228.574 234.111Z" fill="#4E4D4D"/>
<path d="M223.9 235.047C223.801 235.047 223.801 235.195 223.9 235.195C223.999 235.195 223.999 235.047 223.9 235.047Z" fill="#4E4D4D"/>
<path d="M142.79 124.401C140.338 117.196 138.33 109.612 138.675 101.931C138.675 101.898 138.659 101.865 138.626 101.849C132.503 100.174 126.364 97.8436 121.048 94.2982C121.048 94.2982 121.015 94.3146 120.998 94.331C118.661 96.0381 86.1708 105.082 73.0858 88.2578C69.0698 91.0482 64.8892 93.6252 60.725 96.2022C53.664 100.585 47.245 106.1 42.1756 112.698C32.728 124.943 28.5474 140.011 27.313 155.227C25.9798 171.493 29.3374 210.066 29.3374 211.297C29.3374 211.346 29.3868 211.379 29.4362 211.379C37.9291 209.36 46.1916 209.82 55.1947 205.766C55.2441 205.749 48.0679 132.494 67.1276 111.352C67.5555 110.876 68.0987 110.532 68.5925 110.138C68.9546 109.859 72.5098 171.92 115.106 208.375C115.155 208.425 119.237 193.242 122.282 185.199C125.541 176.598 153.522 152.831 153.966 151.222C154.378 149.728 143.564 126.667 142.79 124.401Z" fill="#2B5877"/>
<g style="mix-blend-mode:multiply" opacity="0.25">
<path d="M145.227 130.031C145.046 130.13 144.881 130.228 144.7 130.327C142.132 131.738 139.614 133.183 137.145 134.758C135.796 135.612 134.479 136.498 133.179 137.434C132.817 137.697 132.454 137.959 132.092 138.222C131.977 138.304 131.862 138.402 131.747 138.484C131.714 138.517 131.664 138.55 131.648 138.567C131.055 139.026 130.479 139.502 129.92 139.995C128.8 140.963 127.714 141.981 126.727 143.08C126.463 143.376 126.216 143.671 125.953 143.967C125.887 144.032 125.838 144.114 125.772 144.18C125.756 144.213 125.723 144.229 125.706 144.262C125.344 144.771 124.998 145.28 124.686 145.822C124.521 146.117 124.34 146.429 124.192 146.741C124.159 146.806 124.126 146.888 124.093 146.954C123.896 147.463 123.731 147.988 123.632 148.53C123.632 148.563 123.632 148.595 123.632 148.628C123.632 148.694 123.632 148.743 123.632 148.792C123.632 149.055 123.616 149.318 123.632 149.58C123.632 149.646 123.632 149.728 123.632 149.794C123.649 149.892 123.665 149.991 123.698 150.073C123.748 150.171 123.813 150.286 123.846 150.352C123.846 150.368 123.879 150.385 123.879 150.401C124.143 150.713 124.439 150.992 124.752 151.238C124.85 151.304 124.949 151.369 125.048 151.435C125.278 151.583 125.509 151.731 125.739 151.878C126.249 152.174 126.776 152.469 127.303 152.732C127.632 152.896 127.978 153.044 128.307 153.208C128.438 153.273 128.554 153.323 128.685 153.372C129.327 153.635 129.969 153.881 130.611 154.111C132.043 154.619 133.508 155.095 134.973 155.522C137.886 156.376 140.832 157.131 143.778 157.902C144.667 158.132 145.572 158.362 146.478 158.608C150.708 154.636 153.802 151.731 153.95 151.205C154.246 150.122 148.617 137.631 145.227 130.031Z" fill="#7B95BB"/>
</g>
<path d="M73.875 139.043L75.8501 124.188L92.7207 144.952L98.3827 120.971L110.579 135.924L115.961 114.75L128.338 128.144L130.215 111.319L143.201 116.605" fill="#EBCEA3"/>
<path d="M109.707 95.2499L113.855 93.0504L141.654 101.487L164.796 79.3447L166.573 82.4798L144.238 107.216L109.707 98.3029V95.2499Z" fill="#EBCEA3"/>
<path d="M141.885 103.801L139.021 103.046L106.729 94.4619L116.571 143.097L153.604 154.751L157.258 152.403L178.441 138.845L168.598 77.6211L144.157 101.569L141.885 103.801Z" fill="#AE7E4A"/>
<path d="M165.241 90.2764L149.852 104.097L153.44 118.295L168.286 107.544L165.241 90.2764Z" fill="#EBCEA3"/>
<g style="mix-blend-mode:multiply" opacity="0.25">
<path d="M149.571 101.077C149.983 101.815 150.427 102.538 150.938 103.227C150.954 103.26 150.987 103.276 151.02 103.325C151.135 103.457 151.25 103.604 151.365 103.736C151.612 104.015 151.859 104.277 152.139 104.524C152.32 104.688 152.501 104.868 152.699 105.016C152.764 105.065 152.929 105.197 152.995 105.246C153.291 105.459 153.587 105.656 153.9 105.853C154.345 106.132 154.805 106.395 155.266 106.625C155.48 106.723 155.678 106.838 155.892 106.937C155.941 106.969 155.99 106.986 156.023 106.986C157.636 107.577 159.299 107.839 160.961 108.2C162.689 108.578 164.269 109.202 165.668 110.301C167.166 111.467 168.137 113.371 168.582 115.193C169.125 117.409 169.454 119.657 169.75 121.922C169.75 122.005 169.816 122.431 169.833 122.579C169.849 122.727 169.882 122.891 169.898 123.039C169.964 123.515 170.03 123.974 170.112 124.434C170.277 125.369 170.458 126.305 170.705 127.208C170.853 127.749 171.018 128.291 171.215 128.816C171.265 128.964 171.33 129.112 171.38 129.276C171.413 129.358 171.544 129.653 171.577 129.719C172.038 130.671 172.581 131.607 173.207 132.46C173.256 132.526 173.289 132.575 173.322 132.608C173.404 132.707 173.487 132.821 173.569 132.92C173.733 133.117 173.898 133.33 174.063 133.544C174.392 133.97 174.737 134.381 175.067 134.807C175.758 135.677 176.433 136.547 177.124 137.417C177.519 137.91 177.914 138.419 178.309 138.911L178.408 138.845L168.565 77.6211L147.893 97.876C148.419 98.9593 148.946 100.043 149.538 101.077H149.571Z" fill="#705D69"/>
</g>
<path d="M156.682 153.323L144.157 101.569L139.021 103.047L152.057 155.785L156.682 153.323Z" fill="#4E4D4D"/>
<path d="M185.403 105.64C184.975 106.264 184.563 106.904 184.135 107.527C184.135 107.511 184.119 107.478 184.086 107.478C181.387 107.019 179.264 105.131 177.601 103.063C175.61 100.584 174.095 97.7283 172.614 94.9379C171.166 92.1968 169.8 89.4064 168.055 86.8458C166.508 84.5642 164.533 82.5781 161.932 81.5276C156.928 79.5087 151.25 81.6425 147.547 85.2208C143.893 88.7662 141.835 94.2321 144.173 99.0578C144.436 99.5831 144.732 100.092 145.078 100.568C145.111 100.617 145.16 100.617 145.193 100.568C147.102 98.6475 148.814 96.5136 150.246 94.1993C150.542 97.1538 152.139 99.9606 154.147 102.111C156.056 104.163 158.871 106.001 161.817 105.591C163.134 105.41 164.286 104.786 165.273 103.916C167.66 109.152 169.882 114.52 173.207 119.247C173.223 119.28 173.272 119.296 173.305 119.28C176.054 117.77 178.292 115.455 180.251 113.059C182.16 110.728 183.839 108.2 185.518 105.689C185.567 105.607 185.436 105.525 185.386 105.607L185.403 105.64Z" fill="#FFA99A"/>
<path opacity="0.55" d="M85.0352 80.9863L93.0837 96.3991L98.3835 92.2792L100.902 96.3991L110.58 85.1555" stroke="#A8A2A2" stroke-width="1.08689" stroke-miterlimit="10"/>
<path d="M105.642 21.5342C105.544 21.5342 105.544 21.6989 105.642 21.6989C105.741 21.6989 105.741 21.5342 105.642 21.5342Z" fill="#FAFAFA"/>
<path d="M105.873 21.7646C105.774 21.7646 105.774 21.9293 105.873 21.9293C105.972 21.9293 105.972 21.7646 105.873 21.7646Z" fill="#FAFAFA"/>
<path d="M139.909 51.9496C137.918 48.9951 137.029 45.4497 136.667 41.9371C136.272 38.1126 136.502 34.2389 137.062 30.4473C137.523 27.2958 138.231 24.1771 139.218 21.1569C139.218 21.1241 139.218 21.0913 139.185 21.0749C136.025 18.7769 132.305 17.2668 128.668 15.9045C126.841 15.2315 124.981 14.5913 123.121 14.0004C121.442 13.4588 119.731 12.7694 117.969 12.5888C115.517 12.3262 113.674 13.8855 111.731 15.1166C109.509 16.5282 107.205 18.0547 105.658 20.2049C105.609 20.1229 105.559 20.0244 105.51 19.9423C105.032 18.5799 103.897 17.3489 102.761 16.4954C101.625 15.6582 100.161 15.3792 98.8768 16.0522C97.7411 16.6431 97.2144 17.9398 96.9181 19.1052C96.6054 20.3691 96.4408 21.7478 96.4244 23.061C96.4079 24.7188 96.77 26.6885 97.9386 27.9359C99.2389 29.3147 101.016 28.6089 102.3 27.6076C102.498 31.7932 101.329 35.8311 100.819 39.951C100.325 43.9232 100.885 47.9774 103.156 51.3587C106.514 56.3814 112.999 58.4496 118.809 57.4811C121.228 57.0872 123.549 56.1188 125.508 54.6579C126.495 53.9193 127.384 53.0658 128.141 52.0973C128.651 51.4572 128.981 50.6693 129.326 49.9471C129.738 49.0772 130.182 48.2236 130.725 47.4358C132.931 50.2426 136.469 51.3751 139.844 52.0481C139.909 52.0481 139.975 51.9989 139.926 51.9332L139.909 51.9496Z" fill="#FFA99A"/>
<path d="M105.412 21.0752C105.313 21.0752 105.313 21.2234 105.412 21.2234C105.511 21.2234 105.511 21.0752 105.412 21.0752Z" fill="#EC6B53"/>
<path d="M147.498 11.1608C147.383 10.3237 146.659 9.83128 145.918 9.53582C145.309 9.30603 144.618 9.12547 143.959 9.14189C143.219 9.14189 142.511 9.43734 141.836 9.71638C140.602 10.2252 138.742 11.3085 137.721 9.89693C136.75 8.55098 138.265 6.74544 138.907 5.59646C139.236 4.97273 139.532 4.31617 139.548 3.59395C139.565 2.97022 139.285 2.34649 138.939 1.83765C138.413 1.01695 137.557 0.623018 136.586 0.67226C135.467 0.721502 134.38 1.24675 133.393 1.772C132.191 2.39573 131.056 3.13436 129.887 3.80734C128.916 4.36541 127.879 4.97273 126.76 5.15328C125.377 5.38308 123.83 4.69369 122.661 4.03713C120.127 2.60911 117.921 0.245496 114.86 0.0157C113.378 -0.0991981 111.864 0.34398 110.827 1.4273C109.823 2.46139 109.395 3.92223 109.115 5.30101C108.803 6.82751 108.72 8.38684 108.507 9.92976C108.375 10.9146 108.079 11.8502 107.815 12.8022C107.486 13.984 107.14 15.1494 106.828 16.3312C106.482 17.5459 106.169 18.7605 105.873 19.9751C106.268 20.2213 106.647 20.5168 107.009 20.8287C108.49 20.7138 109.971 20.6481 111.436 20.3198C113.197 19.9095 115.024 18.9739 115.057 16.9385C115.074 15.4777 114.3 14.0497 113.543 12.8515C122.398 14.7555 131.516 16.1671 139.581 20.5168C139.614 20.5332 139.647 20.5168 139.68 20.5168C140.306 19.8931 140.997 19.335 141.672 18.7605C142.61 17.9562 143.532 17.1191 144.42 16.2492C145.26 15.4285 146.066 14.5421 146.725 13.5573C147.185 12.8679 147.63 12.0143 147.515 11.1608H147.498Z" fill="#AE7E4A"/>
<path d="M126.363 33.5826C126.363 34.2556 125.82 34.8137 125.129 34.8137C124.438 34.8137 123.895 34.272 123.895 33.5826C123.895 32.8932 124.438 32.3516 125.129 32.3516C125.82 32.3516 126.363 32.8932 126.363 33.5826Z" fill="#4E4D4D"/>
<path d="M209.07 129.456C208.971 127.848 208.395 126.239 207.77 124.762C206.321 121.282 204.116 118.147 201.68 115.291C199.161 112.336 196.298 109.661 193.203 107.33C192.282 106.624 186.225 101.996 186.093 101.831C186.208 101.717 186.109 101.602 185.994 101.717C185.928 101.651 185.879 101.815 185.879 101.831C180.53 106.657 175.016 111.286 169.486 115.882C169.453 115.898 169.453 115.947 169.486 115.98C171.872 121.331 173.88 126.814 176.464 132.082C177.88 134.955 179.41 137.778 181.287 140.372C182.801 142.473 184.562 144.508 186.834 145.821C189.121 147.151 191.804 147.216 194.339 146.609C197.548 145.854 200.495 144.048 202.931 141.865C205.367 139.682 207.407 136.925 208.461 133.822C208.938 132.411 209.185 130.917 209.103 129.44L209.07 129.456Z" fill="#2B5877"/>
<path d="M256.803 182.901C255.832 171.181 251.931 159.15 244.36 150.007C240.673 145.559 236.015 141.964 230.649 139.798C223.934 137.089 216.494 136.121 209.285 135.957C201.648 135.776 193.978 136.613 186.489 138.107C182.901 138.829 179.346 139.716 175.84 140.783C172.466 141.8 169.108 142.867 165.849 144.197C159.035 146.987 152.402 150.631 146.691 155.293C144.025 157.459 141.589 159.954 139.136 162.351C136.371 165.059 133.688 167.849 131.154 170.771C128.701 173.594 126.38 176.549 124.356 179.717C122.644 182.392 121.377 185.232 120.159 188.153C118.859 191.289 117.674 194.489 116.834 197.788C116.406 199.512 116.061 201.301 115.945 203.09C115.995 203.156 116.044 203.205 116.093 203.271C116.093 203.172 116.093 203.074 116.11 202.975C119.649 209.245 134.462 216.911 137.49 217.239C140.864 217.617 144.288 217.469 147.662 217.042C154.69 216.123 161.504 213.809 167.907 210.854C174.079 208.014 179.955 204.469 185.321 200.316C189.847 196.804 193.846 192.733 197.945 188.761C202.092 184.723 206.405 180.57 211.556 177.796C213.746 176.614 216.149 175.744 218.65 175.613C221.136 175.482 223.539 176.253 225.596 177.616C228.427 179.487 230.517 182.359 232.229 185.232C234.369 188.843 235.867 192.881 236.887 196.935C240.195 209.869 238.056 223.509 234.105 236.033C234.105 236.082 234.105 236.115 234.155 236.132C236.245 236.952 238.533 237.379 240.739 237.724C242.977 238.068 245.709 238.479 247.882 237.592C249.511 236.936 249.923 234.966 250.301 233.44C250.943 230.863 251.272 228.22 251.618 225.594C252.046 222.426 252.688 219.307 253.297 216.156C254.153 211.708 254.959 207.243 255.618 202.745C256.605 196.131 257.313 189.549 256.753 182.868L256.803 182.901Z" fill="#4E4D4D"/>
<path d="M242.795 200.791C241.61 196.245 239.635 191.813 236.738 188.087C233.726 184.229 231.224 175.711 217.958 175.678C207.523 175.645 186.472 199.445 186.472 199.445C189.072 201.3 191.64 205.321 193.368 208.03C195.524 211.411 196.808 215.268 197.483 219.191C198.997 227.989 197.631 237.165 195.36 245.7C193.088 254.235 189.714 262.524 185.451 270.255C184.036 272.832 182.406 275.262 180.826 277.74C177.715 282.615 174.605 287.506 171.823 292.595C171.79 292.66 171.839 292.71 171.905 292.71C179.032 291.741 186.225 291.249 193.417 291.446C196.89 291.544 200.363 291.84 203.803 292.316C205.712 292.578 207.753 293.136 209.712 292.956C211.193 292.825 212.263 291.856 213.185 290.773C214.962 288.688 216.082 286.292 217.053 283.748C218.188 280.809 219.176 277.806 220.427 274.9C221.612 272.126 222.945 269.402 224.328 266.726C230.138 255.417 237.018 244.535 241.132 232.437C244.572 222.343 245.494 211.198 242.795 200.824V200.791Z" fill="#252525"/>
<g style="mix-blend-mode:multiply" opacity="0.45">
<path d="M190.06 203.154C190.06 203.154 190.192 203.072 190.258 203.039C190.999 202.547 191.739 202.038 192.463 201.513C192.809 201.266 193.138 201.02 193.467 200.758C193.632 200.626 193.797 200.511 193.978 200.38C193.994 200.38 194.011 200.347 194.027 200.331C196.99 198.016 199.854 195.587 202.833 193.306C208.281 189.136 214.782 185.131 221.942 185.591C228.822 186.034 235.06 189.53 240.277 193.929C239.29 191.861 238.105 189.908 236.706 188.102C233.694 184.245 231.192 175.726 217.926 175.693C207.491 175.661 186.439 199.461 186.439 199.461C187.674 200.347 188.908 201.71 190.044 203.187L190.06 203.154Z" fill="#4E4D4D"/>
</g>
</g>
<defs>
<clipPath id="clip0_2206_918">
<rect width="283" height="314" fill="white"/>
</clipPath>
</defs>
</svg>
